<svg xmlns="http://www.w3.org/2000/svg" width="103.495" height="86.333" viewBox="0 0 103.495 86.333"><defs><style>.a{fill:#5e53c7;}.b{fill:#e1e1e5;}.c{fill:#009fdf;}.d{fill:#84bd00;}.e{fill:#1e243a;}</style></defs><g transform="translate(-6863.903 -5456.174)"><g transform="translate(6940.815 5460.914)"><path class="a" d="M8009.188,5526l-12.09,10.2,7.277,1.929-5.28,8.1c6.3-4.409,9.361-7.016,13.254-9.878l-8.493-1.7Z" transform="translate(-7997.098 -5526.004)"/></g><g transform="translate(6877.002 5524.352)"><rect class="b" width="79.275" height="17.647" rx="8.823" transform="translate(0 0)"/></g><g transform="translate(6930.054 5457.701)"><path class="c" d="M7869.752,5484.87l-3.578-6.2h-18.417l-9.208,15.95,3.035,5.257,2.96,5.127,3.213,5.565h18.417l9.209-15.95-3.531-6.115Zm-6.791,20.138H7850.97l-6-10.384,6-10.384h11.991l6,10.384Z" transform="translate(-7838.549 -5478.674)"/></g><g transform="translate(6863.903 5456.174)"><path class="a" d="M6880.973,5456.174a17.07,17.07,0,1,0,17.07,17.07A17.07,17.07,0,0,0,6880.973,5456.174Zm.168,31.488a14.433,14.433,0,1,1,14.433-14.433A14.433,14.433,0,0,1,6881.141,5487.662Z" transform="translate(-6863.903 -5456.174)"/></g><g transform="translate(6876.968 5524.317)"><path class="d" d="M7056.4,6463.662v10.67a3.488,3.488,0,0,0,3.488,3.488h43.072v-17.646h-43.072A3.488,3.488,0,0,0,7056.4,6463.662Z" transform="translate(-7056.403 -6460.174)"/></g><g transform="translate(6873.371 5520.788)"><g transform="translate(3.122 3.054)"><path class="e" d="M7125.915,6453.174h-72.732a3.785,3.785,0,0,0-3.78,3.78v11.1a3.785,3.785,0,0,0,3.78,3.78h72.732a3.784,3.784,0,0,0,3.78-3.78v-11.1A3.784,3.784,0,0,0,7125.915,6453.174Zm2.762,14.884a2.766,2.766,0,0,1-2.762,2.763h-72.732a2.766,2.766,0,0,1-2.762-2.763v-11.1a2.765,2.765,0,0,1,2.762-2.762h72.732a2.765,2.765,0,0,1,2.762,2.762Z" transform="translate(-7049.402 -6453.174)"/></g><g transform="translate(49.633 3.054)"><path class="e" d="M7735.191,6453.174a.509.509,0,0,0-.51.509v17.647a.509.509,0,0,0,1.019,0v-17.647A.509.509,0,0,0,7735.191,6453.174Z" transform="translate(-7734.682 -6453.174)"/></g><g transform="translate(3.405 3.054)"><path class="e" d="M7063.707,6453.323l-9.988,9.988a.509.509,0,1,0,.72.72l9.989-9.988a.509.509,0,0,0-.72-.72Z" transform="translate(-7053.569 -6453.175)"/></g><g transform="translate(3.805 3.054)"><path class="e" d="M7075.3,6453.322,7059.613,6469a.509.509,0,1,0,.721.72l15.682-15.683a.509.509,0,0,0-.72-.72Z" transform="translate(-7059.465 -6453.173)"/></g><g transform="translate(9.4 3.054)"><path class="e" d="M7159.354,6453.323l-17.3,17.3a.509.509,0,1,0,.72.72l17.3-17.3a.509.509,0,0,0-.72-.72Z" transform="translate(-7141.903 -6453.175)"/></g><g transform="translate(16.614 3.054)"><path class="e" d="M7265.658,6453.323l-17.318,17.318a.509.509,0,1,0,.721.72l17.317-17.318a.509.509,0,0,0-.72-.72Z" transform="translate(-7248.191 -6453.175)"/></g><g transform="translate(23.845 3.054)"><path class="e" d="M7372.194,6453.323l-17.318,17.318a.509.509,0,1,0,.72.72l17.318-17.318a.509.509,0,0,0-.72-.72Z" transform="translate(-7354.728 -6453.175)"/></g><g transform="translate(31.076 3.054)"><path class="e" d="M7478.727,6453.323l-17.317,17.318a.509.509,0,1,0,.72.72l17.318-17.317a.509.509,0,0,0-.721-.72Z" transform="translate(-7461.26 -6453.174)"/></g><g transform="translate(38.306 9.197)"><path class="e" d="M7579.269,6543.823l-11.327,11.327a.509.509,0,1,0,.72.72l11.327-11.327a.509.509,0,0,0-.72-.72Z" transform="translate(-7567.792 -6543.674)"/></g><g transform="translate(0 0)"><path class="e" d="M7084.266,6408.174h-75.188a5.68,5.68,0,0,0-5.674,5.674v10.174a.509.509,0,0,0,1.018,0v-10.174a4.662,4.662,0,0,1,4.656-4.656h75.188a4.661,4.661,0,0,1,4.656,4.656v10.174a.509.509,0,0,0,1.019,0v-10.174A5.681,5.681,0,0,0,7084.266,6408.174Z" transform="translate(-7003.403 -6408.174)"/></g></g><g transform="translate(6864.124 5456.479)"><g transform="translate(7.245 3.926)"><g transform="translate(0 0.016)"><path class="e" d="M6983.975,5518.894a.509.509,0,0,0-.72,0l-9.2,9.191a.509.509,0,0,0,.72.72l8.842-8.831,8.831,8.842a.51.51,0,0,0,.36.149.51.51,0,0,0,.36-.869Z" transform="translate(-6973.903 -5518.744)"/></g><g transform="translate(9.197)"><path class="e" d="M7109.912,5518.509a.509.509,0,0,0-.509.509v23.3a.509.509,0,0,0,1.018,0v-23.3A.509.509,0,0,0,7109.912,5518.509Z" transform="translate(-7109.403 -5518.509)"/></g><g transform="translate(11.906 10.838)"><path class="e" d="M7149.834,5678.2a.509.509,0,0,0-.509.509v7.316a.509.509,0,0,0,1.018,0v-7.316A.509.509,0,0,0,7149.834,5678.2Z" transform="translate(-7149.325 -5678.196)"/></g><g transform="translate(6.487 14.451)"><path class="e" d="M7069.991,5731.427a.508.508,0,0,0-.509.509v8.852a.509.509,0,0,0,1.018,0v-8.852A.508.508,0,0,0,7069.991,5731.427Z" transform="translate(-7069.482 -5731.427)"/></g></g><g transform="translate(0 0)"><g transform="translate(0.327 21.651)"><path class="e" d="M6888.668,5791.321a16.53,16.53,0,0,1-15.7-11.3.509.509,0,0,0-.966.322,17.576,17.576,0,0,0,16.664,11.994.509.509,0,0,0,0-1.018Z" transform="translate(-6871.978 -5779.675)"/></g><g transform="translate(22.897 0.419)"><path class="e" d="M7205.205,5466.89a.509.509,0,1,0-.382.944,16.554,16.554,0,0,1,3.488,28.768.509.509,0,0,0,.6.825,17.542,17.542,0,0,0,7.284-14.245,17.573,17.573,0,0,0-10.987-16.292Z" transform="translate(-7204.505 -5466.853)"/></g><path class="e" d="M6878.786,5460.7a17.6,17.6,0,0,0-11.614,12.288.509.509,0,0,0,.365.621.486.486,0,0,0,.128.017.509.509,0,0,0,.492-.381,16.678,16.678,0,0,1,10.941-11.575.509.509,0,0,0-.312-.969Z" transform="translate(-6867.155 -5460.672)"/><g transform="translate(2.075 1.807)"><path class="e" d="M6912.677,5487.3a14.943,14.943,0,1,0,10.565,4.376A14.844,14.844,0,0,0,6912.677,5487.3Zm0,28.866a13.924,13.924,0,1,1,13.924-13.924A13.939,13.939,0,0,1,6912.677,5516.166Z" transform="translate(-6897.734 -5487.3)"/></g></g></g><g transform="translate(6929.545 5457.192)"><g transform="translate(5.995 9.835)"><path class="e" d="M7947.64,5616.327a.509.509,0,0,0-.882.509l3.384,5.861-8.915,15.441H7923.4l-3.066-5.311a.509.509,0,1,0-.881.509l3.213,5.565a.51.51,0,0,0,.441.255h18.417a.509.509,0,0,0,.441-.255l9.208-15.95a.508.508,0,0,0,0-.509Z" transform="translate(-7919.381 -5616.073)"/></g><g transform="translate(0 0)"><path class="e" d="M7859.625,5471.428a.508.508,0,0,0-.441-.254h-18.417a.51.51,0,0,0-.441.254l-9.208,15.95a.51.51,0,0,0,0,.509l3.035,5.257a.509.509,0,0,0,.882-.509l-2.888-5,8.915-15.441h17.83l3.431,5.942a.509.509,0,0,0,.882-.509Z" transform="translate(-7831.049 -5471.174)"/></g><g transform="translate(6.426 5.566)"><path class="e" d="M7944.67,5553.428a.508.508,0,0,0-.441-.254h-2.378a.509.509,0,1,0,0,1.018h2.084l5.7,9.875-5.7,9.875h-11.4l-5.7-9.875,5.7-9.875h7.127a.509.509,0,1,0,0-1.018h-7.42a.509.509,0,0,0-.441.254l-6,10.384a.51.51,0,0,0,0,.509l6,10.384a.509.509,0,0,0,.441.255h11.991a.509.509,0,0,0,.441-.255l6-10.384a.51.51,0,0,0,0-.509Z" transform="translate(-7925.733 -5553.174)"/></g><g transform="translate(10.761 3.212)"><path class="e" d="M8005.457,5528.864l-7.776-1.554,4.948-8.031a.509.509,0,0,0-.762-.656l-12.09,10.2a.509.509,0,0,0,.2.881l6.6,1.748-4.9,7.508a.509.509,0,0,0,.719.7c4.057-2.841,6.807-4.959,9.232-6.828,1.36-1.048,2.646-2.038,4.031-3.058a.509.509,0,0,0-.2-.909Zm-4.451,3.16c-1.956,1.507-4.122,3.176-7.017,5.255l3.819-5.857a.509.509,0,0,0-.3-.77l-6.331-1.678,8.913-7.523-3.665,5.948a.509.509,0,0,0,.334.766l7.369,1.473C8003.08,5530.427,8002.065,5531.208,8001.006,5532.024Z" transform="translate(-7989.597 -5518.503)"/></g></g><g transform="translate(6943.486 5483.73)"><path class="e" d="M8302.16,6140.487a.524.524,0,0,0,.14-.02,3.768,3.768,0,0,0,1.664-1,.509.509,0,0,0-.73-.709,2.749,2.749,0,0,1-1.213.728.509.509,0,0,0,.14,1Z" transform="translate(-8283.651 -6119.844)"/><path class="e" d="M8039.095,6167.281a3.767,3.767,0,0,0-.978,1.675.51.51,0,0,0,.356.626.539.539,0,0,0,.135.018.509.509,0,0,0,.491-.375,2.746,2.746,0,0,1,.714-1.222.509.509,0,0,0-.718-.722Z" transform="translate(-8037.987 -6146.435)"/><path class="e" d="M8083.331,6279.071h-1.474c-.062,0-.126,0-.188-.006a.509.509,0,1,0-.069,1.016c.085.006.171.009.257.009h1.474a.509.509,0,1,0,0-1.018Z" transform="translate(-8078.093 -6250.769)"/><path class="e" d="M8336.912,6074.889a.509.509,0,0,0,.509-.509v-1.7a.509.509,0,0,0-1.018,0v1.7A.509.509,0,0,0,8336.912,6074.889Z" transform="translate(-8316.045 -6057.921)"/><path class="e" d="M8094.037,6153.174h-1.7a.509.509,0,0,0,0,1.018h1.7a.509.509,0,0,0,0-1.018Z" transform="translate(-8088.072 -6133.423)"/><path class="e" d="M8336.912,5864.889a.509.509,0,0,0,.509-.509v-1.7a.509.509,0,0,0-1.018,0v1.7A.509.509,0,0,0,8336.912,5864.889Z" transform="translate(-8316.045 -5862.174)"/><path class="e" d="M8336.912,5934.889a.508.508,0,0,0,.509-.509v-1.7a.509.509,0,0,0-1.018,0v1.7A.508.508,0,0,0,8336.912,5934.889Z" transform="translate(-8316.045 -5927.423)"/><path class="e" d="M8336.912,6004.889a.509.509,0,0,0,.509-.509v-1.7a.509.509,0,0,0-1.018,0v1.7A.509.509,0,0,0,8336.912,6004.889Z" transform="translate(-8316.045 -5992.672)"/><path class="e" d="M8037.467,6233.8a.509.509,0,0,0-1.018.045,3.761,3.761,0,0,0,.583,1.851.509.509,0,0,0,.859-.546A2.746,2.746,0,0,1,8037.467,6233.8Z" transform="translate(-8036.449 -6208.126)"/><path class="e" d="M8354.912,6446.461a.508.508,0,0,0-.509.509v1.7a.509.509,0,1,0,1.019,0v-1.7A.509.509,0,0,0,8354.912,6446.461Z" transform="translate(-8332.823 -6406.804)"/><path class="e" d="M8315.246,6510.929a2.737,2.737,0,0,1-1.3.563.509.509,0,0,0,.073,1.013.5.5,0,0,0,.076-.006,3.764,3.764,0,0,0,1.78-.771.509.509,0,1,0-.633-.8Z" transform="translate(-8294.709 -6466.794)"/><path class="e" d="M8153.328,6279.174h-1.7a.509.509,0,0,0,0,1.018h1.7a.509.509,0,0,0,0-1.018Z" transform="translate(-8143.339 -6250.871)"/><path class="e" d="M8350.313,6307.148a.509.509,0,0,0-.249.675,2.732,2.732,0,0,1,.251,1.149v.291a.509.509,0,1,0,1.018,0v-.291a3.737,3.737,0,0,0-.344-1.575A.51.51,0,0,0,8350.313,6307.148Z" transform="translate(-8328.734 -6276.903)"/><path class="e" d="M8354.912,6376.461a.508.508,0,0,0-.509.509v1.7a.509.509,0,1,0,1.019,0v-1.7A.509.509,0,0,0,8354.912,6376.461Z" transform="translate(-8332.823 -6341.555)"/><path class="e" d="M8293.221,6280.248a.529.529,0,0,0,.1.01.509.509,0,0,0,.1-1.008,3.769,3.769,0,0,0-.757-.076h-1.037a.509.509,0,0,0,0,1.018h1.037A2.742,2.742,0,0,1,8293.221,6280.248Z" transform="translate(-8273.837 -6250.871)"/><path class="e" d="M8164.036,6153.174h-1.7a.509.509,0,0,0,0,1.018h1.7a.509.509,0,1,0,0-1.018Z" transform="translate(-8153.321 -6133.423)"/><path class="e" d="M8223.328,6279.174h-1.7a.509.509,0,1,0,0,1.018h1.7a.509.509,0,0,0,0-1.018Z" transform="translate(-8208.587 -6250.871)"/><path class="e" d="M8234.037,6153.174h-1.7a.509.509,0,0,0,0,1.018h1.7a.509.509,0,0,0,0-1.018Z" transform="translate(-8218.57 -6133.423)"/></g><g transform="translate(6868.756 5491.264)"><path class="e" d="M7038.324,6225.174h-1.7a.509.509,0,0,0,0,1.018h1.7a.509.509,0,1,0,0-1.018Z" transform="translate(-7029.283 -6208.07)"/><path class="e" d="M6968.671,6222.315h-.523a2.74,2.74,0,0,1-.969-.175.509.509,0,0,0-.358.952,3.74,3.74,0,0,0,1.327.241h.523a.509.509,0,0,0,0-1.019Z" transform="translate(-6964.38 -6205.212)"/><path class="e" d="M6983.034,6075.174h-1.521c-.066,0-.135,0-.2,0a.509.509,0,0,0,.026,1.018h.027c.049,0,.1,0,.147,0h1.521a.509.509,0,1,0,0-1.018Z" transform="translate(-6977.746 -6068.251)"/><path class="e" d="M6936.8,6096.948a.509.509,0,0,0-.705.146,3.767,3.767,0,0,0-.61,1.842.509.509,0,0,0,.479.538h.03a.509.509,0,0,0,.508-.479,2.744,2.744,0,0,1,.444-1.343A.51.51,0,0,0,6936.8,6096.948Z" transform="translate(-6935.479 -6088.47)"/><path class="e" d="M6936.421,6166.634v-.8a.509.509,0,1,0-1.019,0v.8a3.8,3.8,0,0,0,.14,1.018.51.51,0,0,0,.49.372.52.52,0,0,0,.138-.019.509.509,0,0,0,.353-.627A2.76,2.76,0,0,1,6936.421,6166.634Z" transform="translate(-6935.402 -6152.279)"/><path class="e" d="M7109.912,6312.459a.509.509,0,0,0-.509.509v1.7a.509.509,0,1,0,1.018,0v-1.7A.509.509,0,0,0,7109.912,6312.459Z" transform="translate(-7097.593 -6289.431)"/><path class="e" d="M7204.911,5973.174a.509.509,0,0,0-.509.509v1.7a.509.509,0,0,0,1.019,0v-1.7A.509.509,0,0,0,7204.911,5973.174Z" transform="translate(-7186.145 -5973.174)"/><path class="e" d="M7189.556,6042.906a.509.509,0,0,0-.647.314,2.756,2.756,0,0,1-.792,1.173.509.509,0,0,0,.669.768,3.775,3.775,0,0,0,1.085-1.607A.509.509,0,0,0,7189.556,6042.906Z" transform="translate(-7170.801 -6038.147)"/><path class="e" d="M7123.032,6075.174h-1.7a.509.509,0,0,0,0,1.018h1.7a.509.509,0,1,0,0-1.018Z" transform="translate(-7108.242 -6068.251)"/><path class="e" d="M7101.046,6247.1a.5.5,0,0,0,.061,0,.509.509,0,0,0,.446-.565,3.761,3.761,0,0,0-.719-1.8.509.509,0,0,0-.816.608,2.741,2.741,0,0,1,.524,1.313A.509.509,0,0,0,7101.046,6247.1Z" transform="translate(-7088.75 -6226.104)"/><path class="e" d="M7053.033,6075.174h-1.7a.509.509,0,0,0,0,1.018h1.7a.509.509,0,0,0,0-1.018Z" transform="translate(-7042.993 -6068.251)"/></g></g></svg>