<svg xmlns="http://www.w3.org/2000/svg" width="103.796" height="90.5" viewBox="0 0 103.796 90.5"><defs><style>.a{fill:#5e53c7;}.b{fill:#009fdf;}.c{fill:#84bd00;}.d{fill:#e1e1e5;}.e{fill:#1e243a;}</style></defs><g transform="translate(-2586.214 -5535.174)"><g transform="translate(2623.355 5538.579)"><rect class="a" width="10.326" height="2.245" transform="translate(0)"/></g><g transform="translate(2614.074 5543.292)"><path class="a" d="M2978.094,5643.674H2967.88v19.6h-9.337l14.407,21.737,14.482-21.737h-9.337Z" transform="translate(-2958.543 -5643.674)"/></g><g transform="translate(2648.459 5543.269)"><path class="b" d="M3437.85,5651l2.625-2.625-2.847-2.847-2.642,2.643a8.8,8.8,0,0,0-2.607-1.071v-3.745h-4.026v3.745a8.8,8.8,0,0,0-2.607,1.071l-2.642-2.643-2.847,2.847,2.625,2.625a8.8,8.8,0,0,0-1.111,2.624h-3.688v4.026h3.654a8.791,8.791,0,0,0,1.088,2.682l-2.567,2.568,2.847,2.847,2.55-2.55a8.792,8.792,0,0,0,2.7,1.128v3.6h4.026v-3.6a8.793,8.793,0,0,0,2.7-1.128l2.55,2.55,2.847-2.847-2.567-2.568a8.785,8.785,0,0,0,1.088-2.682h3.654v-4.026h-3.689A8.791,8.791,0,0,0,3437.85,5651Zm-7.484,9.778a5.067,5.067,0,1,1,5.067-5.066A5.066,5.066,0,0,1,3430.366,5660.777Z" transform="translate(-3418.083 -5643.353)"/></g><g transform="translate(2662.039 5571.589)"><path class="b" d="M3614.353,6027.566l1.962-1.961-2.127-2.127-1.974,1.974a6.59,6.59,0,0,0-1.948-.8v-2.8h-3.008v2.8a6.592,6.592,0,0,0-1.948.8l-1.974-1.974-2.127,2.127,1.961,1.961a6.581,6.581,0,0,0-.83,1.961h-2.756v3.008h2.73a6.567,6.567,0,0,0,.813,2l-1.918,1.918,2.127,2.127,1.905-1.906a6.565,6.565,0,0,0,2.017.844v2.687h3.008v-2.687a6.562,6.562,0,0,0,2.017-.844l1.906,1.906,2.127-2.127-1.919-1.918a6.567,6.567,0,0,0,.813-2h2.73v-3.008h-2.756A6.581,6.581,0,0,0,3614.353,6027.566Zm-5.592,7.307a3.786,3.786,0,1,1,3.786-3.786A3.786,3.786,0,0,1,3608.761,6034.873Z" transform="translate(-3599.583 -6021.853)"/></g><g transform="translate(2586.79 5590.507)"><circle class="c" cx="16.349" cy="16.349" r="16.349" transform="translate(0 0)"/></g><g transform="translate(2615.709 5596.081)"><path class="d" d="M2983.7,6355.908h63.176a3.643,3.643,0,0,0,3.643-3.643v-3.091H2980.4Z" transform="translate(-2980.403 -6349.174)"/></g><g transform="translate(2637.409 5602.217)"><rect class="d" width="18.557" height="17.509" transform="translate(0 0)"/></g><g transform="translate(2630.525 5619.726)"><path class="d" d="M3207.954,6665.174H3181.1a2.7,2.7,0,0,0-2.7,2.7v2.914h32.25v-2.914A2.7,2.7,0,0,0,3207.954,6665.174Z" transform="translate(-3178.403 -6665.174)"/></g><g transform="translate(2613.523 5535.174)"><g transform="translate(0 7.568)"><path class="e" d="M2980.63,5655.926h-8.787v-19.054a.55.55,0,0,0-.55-.55h-10.214a.55.55,0,0,0-.55.55v19.054h-8.787a.55.55,0,0,0-.459.854l14.407,21.737a.551.551,0,0,0,.458.246h0a.549.549,0,0,0,.458-.246l14.482-21.736a.55.55,0,0,0-.458-.855Zm-14.48,21.292-13.383-20.192h8.313a.55.55,0,0,0,.55-.55v-19.054h9.113v19.054a.55.55,0,0,0,.55.55h8.31Z" transform="translate(-2951.191 -5636.322)"/></g><g transform="translate(9.27 2.843)"><path class="e" d="M3085.97,5573.174h-10.326a.561.561,0,0,0-.561.561v2.245a.561.561,0,0,0,.561.561h10.326a.561.561,0,0,0,.561-.561v-2.245A.561.561,0,0,0,3085.97,5573.174Zm-.561,2.245h-9.2V5574.3h9.2Z" transform="translate(-3075.083 -5573.174)"/></g><g transform="translate(9.294)"><path class="e" d="M3086.29,5535.174h-10.326a.561.561,0,1,0,0,1.122h10.326a.561.561,0,0,0,0-1.122Z" transform="translate(-3075.403 -5535.174)"/></g><g transform="translate(2.91 45.493)"><path class="e" d="M3013.69,6143.174a.561.561,0,0,0-.561.561v5.275h-21.924v-5.275a.561.561,0,0,0-1.122,0v5.836a.561.561,0,0,0,.561.561h23.046a.561.561,0,0,0,.562-.561v-5.836A.561.561,0,0,0,3013.69,6143.174Z" transform="translate(-2990.083 -6143.174)"/></g></g><g transform="translate(2606.773 5548.493)"><g transform="translate(0)"><g transform="translate(0 0.001)"><path class="e" d="M2877.15,5713.188h-11.578a4.6,4.6,0,0,0-4.6,4.6V5755.2a.561.561,0,1,0,1.122,0V5717.79a3.483,3.483,0,0,1,3.479-3.479h11.578a.561.561,0,0,0,0-1.122Z" transform="translate(-2860.971 -5713.188)"/></g><g transform="translate(12.137)"><path class="e" d="M3089.469,5714.521a4.573,4.573,0,0,0-3.253-1.348h-11.26a.561.561,0,0,0,0,1.123h11.26a3.479,3.479,0,0,1,3.479,3.479v45.671a3.478,3.478,0,0,1-3.479,3.479h-62.481a.561.561,0,0,0,0,1.122h62.481a4.6,4.6,0,0,0,4.6-4.6v-45.671A4.571,4.571,0,0,0,3089.469,5714.521Z" transform="translate(-3023.174 -5713.174)"/></g><g transform="translate(26.767 0.001)"><path class="e" d="M3236.247,5713.182h-16.985a.561.561,0,1,0,0,1.122h16.985a.561.561,0,1,0,0-1.122Z" transform="translate(-3218.7 -5713.182)"/></g><g transform="translate(8.338 47.033)"><path class="e" d="M3043.125,6341.746l-70.161,0a.561.561,0,1,0,0,1.122h70.161a.561.561,0,1,0,0-1.123Z" transform="translate(-2972.403 -6341.746)"/></g><g transform="translate(23.203 70.684)"><path class="e" d="M3200.884,6657.837h-26.25a3.566,3.566,0,0,0-3.562,3.562v2.375a.561.561,0,0,0,.561.562h32.251a.561.561,0,0,0,.561-.562V6661.4A3.566,3.566,0,0,0,3200.884,6657.837Zm2.439,5.375h-31.128V6661.4a2.441,2.441,0,0,1,2.439-2.439h26.25a2.442,2.442,0,0,1,2.439,2.439Z" transform="translate(-3171.072 -6657.837)"/></g><g transform="translate(30.057 54.155)"><path class="e" d="M3263.225,6436.938a.561.561,0,0,0-.561.562v16.528a.561.561,0,1,0,1.123,0V6437.5A.562.562,0,0,0,3263.225,6436.938Z" transform="translate(-3262.664 -6436.938)"/></g><g transform="translate(48.601 54.155)"><path class="e" d="M3511.062,6436.938a.561.561,0,0,0-.561.562v16.528a.561.561,0,1,0,1.122,0V6437.5A.561.561,0,0,0,3511.062,6436.938Z" transform="translate(-3510.501 -6436.938)"/></g></g><g transform="translate(32.731 57.016)"><path class="e" d="M3298.964,6475.174a.561.561,0,0,0-.561.561v4.19a.561.561,0,1,0,1.122,0v-4.19A.561.561,0,0,0,3298.964,6475.174Z" transform="translate(-3298.403 -6475.174)"/></g><g transform="translate(32.731 64.798)"><path class="e" d="M3307.345,6582.317h-7.819v-2.582a.561.561,0,0,0-1.122,0v3.143a.561.561,0,0,0,.561.562h8.38a.561.561,0,0,0,0-1.123Z" transform="translate(-3298.403 -6579.174)"/></g></g><g transform="translate(2682.753 5624.515)"><path class="e" d="M3883.1,6729.174h-6.136a.561.561,0,1,0,0,1.122h6.136a.561.561,0,1,0,0-1.122Z" transform="translate(-3876.403 -6729.174)"/></g><g transform="translate(2659.108 5624.515)"><path class="e" d="M3579.521,6729.174h-18.557a.561.561,0,1,0,0,1.122h18.557a.561.561,0,1,0,0-1.122Z" transform="translate(-3560.403 -6729.174)"/></g><g transform="translate(2610.921 5624.515)"><path class="e" d="M2940.31,6729.174h-23.345a.561.561,0,1,0,0,1.122h23.345a.561.561,0,1,0,0-1.122Z" transform="translate(-2916.403 -6729.174)"/></g><g transform="translate(2647.897 5542.707)"><path class="e" d="M3512.658,5733.3a5.628,5.628,0,1,0,5.628,5.628A5.634,5.634,0,0,0,3512.658,5733.3Zm0,10.133a4.505,4.505,0,1,1,4.505-4.505A4.51,4.51,0,0,1,3512.658,5743.433Z" transform="translate(-3499.814 -5726.008)"/><path class="e" d="M3435.71,5646.125h-3.257a9.324,9.324,0,0,0-.835-1.976l2.315-2.316a.561.561,0,0,0,0-.793l-2.847-2.847a.561.561,0,0,0-.793,0l-2.337,2.337a9.34,9.34,0,0,0-1.955-.8v-3.31a.561.561,0,0,0-.561-.562h-4.026a.561.561,0,0,0-.561.562v3.31a9.351,9.351,0,0,0-1.955.8l-2.336-2.337a.561.561,0,0,0-.794,0l-2.847,2.847a.561.561,0,0,0,0,.793l2.315,2.316a9.3,9.3,0,0,0-.835,1.976h-3.258a.561.561,0,0,0-.562.561v4.026a.562.562,0,0,0,.562.562h3.215a9.327,9.327,0,0,0,.825,2.029l-2.262,2.262a.561.561,0,0,0,0,.793l2.847,2.847a.561.561,0,0,0,.794,0l2.241-2.241a9.312,9.312,0,0,0,2.05.857v3.161a.561.561,0,0,0,.561.561h4.026a.561.561,0,0,0,.561-.561v-3.161a9.3,9.3,0,0,0,2.05-.857l2.241,2.241a.561.561,0,0,0,.793,0l2.847-2.847a.561.561,0,0,0,0-.793l-2.262-2.262a9.326,9.326,0,0,0,.824-2.029h3.215a.561.561,0,0,0,.562-.562v-4.026A.561.561,0,0,0,3435.71,5646.125Zm-.561,4.026h-3.092a.562.562,0,0,0-.548.438,8.22,8.22,0,0,1-1.019,2.511.561.561,0,0,0,.082.69l2.17,2.17-2.053,2.054-2.153-2.154a.561.561,0,0,0-.7-.078,8.235,8.235,0,0,1-2.527,1.057.56.56,0,0,0-.434.546v3.034h-2.9v-3.034a.561.561,0,0,0-.434-.546,8.225,8.225,0,0,1-2.527-1.057.561.561,0,0,0-.7.078l-2.153,2.153-2.053-2.053,2.171-2.17a.561.561,0,0,0,.081-.69,8.22,8.22,0,0,1-1.019-2.511.561.561,0,0,0-.548-.438h-3.092v-2.9h3.127a.561.561,0,0,0,.545-.429,8.211,8.211,0,0,1,1.04-2.457.561.561,0,0,0-.078-.7l-2.228-2.228,2.053-2.053,2.245,2.245a.563.563,0,0,0,.691.082,8.213,8.213,0,0,1,2.44-1,.562.562,0,0,0,.434-.547v-3.183h2.9v3.183a.561.561,0,0,0,.434.547,8.218,8.218,0,0,1,2.44,1,.562.562,0,0,0,.69-.082l2.246-2.245,2.053,2.053-2.228,2.228a.561.561,0,0,0-.078.7,8.211,8.211,0,0,1,1.04,2.457.561.561,0,0,0,.545.429h3.127Z" transform="translate(-3410.583 -5635.854)"/></g><g transform="translate(2661.478 5571.028)"><path class="e" d="M3668.495,6087.166a4.347,4.347,0,1,0,4.347,4.347A4.352,4.352,0,0,0,3668.495,6087.166Zm0,7.571a3.225,3.225,0,1,1,3.225-3.225A3.228,3.228,0,0,1,3668.495,6094.737Z" transform="translate(-3658.756 -6081.718)"/><path class="e" d="M3611,6022.028h-2.329a7.116,7.116,0,0,0-.554-1.31l1.655-1.655a.561.561,0,0,0,0-.793l-2.127-2.127a.561.561,0,0,0-.794,0l-1.671,1.671a7.057,7.057,0,0,0-1.293-.532v-2.368a.561.561,0,0,0-.561-.561h-3.008a.561.561,0,0,0-.561.561v2.368a7.069,7.069,0,0,0-1.293.532l-1.671-1.671a.561.561,0,0,0-.793,0l-2.127,2.127a.561.561,0,0,0,0,.793l1.655,1.655a7.114,7.114,0,0,0-.554,1.31h-2.329a.561.561,0,0,0-.561.561v3.008a.561.561,0,0,0,.561.562h2.3a7.147,7.147,0,0,0,.548,1.349l-1.615,1.615a.561.561,0,0,0,0,.793l2.127,2.127a.56.56,0,0,0,.793,0l1.6-1.6a7.067,7.067,0,0,0,1.365.571v2.255a.561.561,0,0,0,.561.562h3.008a.561.561,0,0,0,.561-.562v-2.255a7.091,7.091,0,0,0,1.366-.571l1.6,1.6a.56.56,0,0,0,.794,0l2.127-2.127a.561.561,0,0,0,0-.793l-1.615-1.615a7.147,7.147,0,0,0,.548-1.349h2.3a.561.561,0,0,0,.561-.562v-3.008A.561.561,0,0,0,3611,6022.028Zm-.561,3.007h-2.169a.562.562,0,0,0-.548.439,6,6,0,0,1-.744,1.833.561.561,0,0,0,.082.69l1.521,1.522-1.333,1.333-1.509-1.509a.561.561,0,0,0-.7-.078,6,6,0,0,1-1.844.771.561.561,0,0,0-.434.547v2.125h-1.885v-2.125a.561.561,0,0,0-.434-.547,6,6,0,0,1-1.844-.771.561.561,0,0,0-.7.078l-1.509,1.509-1.333-1.333,1.522-1.522a.561.561,0,0,0,.082-.69,6,6,0,0,1-.744-1.833.562.562,0,0,0-.548-.439h-2.169v-1.885h2.195a.562.562,0,0,0,.546-.429,6.008,6.008,0,0,1,.759-1.794.56.56,0,0,0-.078-.7l-1.565-1.565,1.333-1.333,1.578,1.578a.56.56,0,0,0,.69.082,6,6,0,0,1,1.781-.732.562.562,0,0,0,.434-.547v-2.237h1.885v2.237a.562.562,0,0,0,.434.547,6,6,0,0,1,1.782.732.56.56,0,0,0,.69-.082l1.577-1.578,1.333,1.333-1.564,1.565a.561.561,0,0,0-.078.7,6,6,0,0,1,.759,1.794.561.561,0,0,0,.545.429h2.2Z" transform="translate(-3592.083 -6014.354)"/></g><g transform="translate(2586.214 5589.932)"><g transform="translate(0 0)"><path class="e" d="M2603.141,6266.986a16.924,16.924,0,1,0,11.967,4.957A16.814,16.814,0,0,0,2603.141,6266.986Zm0,32.7a15.774,15.774,0,1,1,15.774-15.774A15.792,15.792,0,0,1,2603.141,6299.685Z" transform="translate(-2586.216 -6266.986)"/></g><g transform="translate(8.103 0.449)"><path class="e" d="M2695.662,6289.4c.045-5.138,2.747-10.327,8.032-15.424a.575.575,0,0,0-.8-.828,31.631,31.631,0,0,0-6.242,8.049,18.1,18.1,0,0,0-2.142,8.192,18.4,18.4,0,0,0,2.087,8.44,33.042,33.042,0,0,0,6.29,8.36.575.575,0,1,0,.813-.814C2698.322,6300,2695.617,6294.628,2695.662,6289.4Z" transform="translate(-2694.511 -6272.985)"/></g><g transform="translate(16.312 0.449)"><path class="e" d="M2805.2,6273.161a.575.575,0,1,0-.825.8c5.432,5.583,8.046,11.158,7.771,16.568-.252,4.942-2.792,9.8-7.768,14.848a.575.575,0,1,0,.819.808,33.455,33.455,0,0,0,5.74-7.542,19.124,19.124,0,0,0,2.357-8.056,18.237,18.237,0,0,0-1.727-8.525A32.209,32.209,0,0,0,2805.2,6273.161Z" transform="translate(-2804.216 -6272.987)"/></g><g transform="translate(0 15.601)"><path class="e" d="M2619.216,6475.545c-10.7,5.278-21.523,5.279-32.171,0a.575.575,0,1,0-.511,1.03,37.186,37.186,0,0,0,16.577,4.1h.01a37.438,37.438,0,0,0,16.6-4.1.575.575,0,0,0-.509-1.032Z" transform="translate(-2586.214 -6475.485)"/></g></g><g transform="translate(2588.847 5538.242)"><path class="e" d="M2640.729,5597.269a.561.561,0,1,0-.7-.875,7.438,7.438,0,0,0-1.387,1.463.561.561,0,1,0,.912.655A6.326,6.326,0,0,1,2640.729,5597.269Z" transform="translate(-2637.253 -5594.767)"/><path class="e" d="M2657.37,5996.541a6.258,6.258,0,0,1-1.459-.894.561.561,0,0,0-.711.869,7.391,7.391,0,0,0,1.72,1.053.561.561,0,1,0,.45-1.028Z" transform="translate(-2652.48 -5964.142)"/><path class="e" d="M2623.18,5936.2a.561.561,0,1,0-1.114.134,7.371,7.371,0,0,0,.512,1.951.561.561,0,1,0,1.036-.431A6.237,6.237,0,0,1,2623.18,5936.2Z" transform="translate(-2622.012 -5908.801)"/><path class="e" d="M2621.964,5868.727a.561.561,0,0,0,.561-.561v-1.871a.561.561,0,0,0-1.122,0v1.871A.561.561,0,0,0,2621.964,5868.727Z" transform="translate(-2621.403 -5844.068)"/><path class="e" d="M2698.581,5577.3a.561.561,0,0,0,0-1.123h-.61a7.478,7.478,0,0,0-1.355.124.561.561,0,0,0,.1,1.113.571.571,0,0,0,.1-.009,6.285,6.285,0,0,1,1.151-.105Z" transform="translate(-2690.563 -5576.174)"/><path class="e" d="M2621.964,5658.761a.561.561,0,0,0,.561-.561v-.977a6.4,6.4,0,0,1,.053-.819.561.561,0,0,0-1.113-.145,7.545,7.545,0,0,0-.062.963v.977A.561.561,0,0,0,2621.964,5658.761Z" transform="translate(-2621.403 -5649.815)"/><path class="e" d="M2621.964,5728.727a.561.561,0,0,0,.561-.561V5726.3a.561.561,0,1,0-1.122,0v1.871A.561.561,0,0,0,2621.964,5728.727Z" transform="translate(-2621.403 -5714.543)"/><path class="e" d="M2621.964,5798.727a.561.561,0,0,0,.561-.561V5796.3a.561.561,0,0,0-1.122,0v1.871A.561.561,0,0,0,2621.964,5798.727Z" transform="translate(-2621.403 -5779.306)"/><path class="e" d="M2908.491,5576.174h-1.871a.561.561,0,0,0,0,1.123h1.871a.561.561,0,1,0,0-1.123Z" transform="translate(-2884.76 -5576.174)"/><path class="e" d="M2838.491,5576.174h-1.871a.561.561,0,0,0,0,1.123h1.871a.561.561,0,1,0,0-1.123Z" transform="translate(-2819.998 -5576.174)"/><path class="e" d="M2804.964,6111.174a.562.562,0,0,0-.561.562v1.871a.561.561,0,0,0,1.122,0v-1.871A.561.561,0,0,0,2804.964,6111.174Z" transform="translate(-2790.71 -6071.143)"/><path class="e" d="M2722.746,6016.89a7.385,7.385,0,0,0-1.971-.431.562.562,0,0,0-.088,1.12,6.262,6.262,0,0,1,1.671.365.561.561,0,0,0,.387-1.054Z" transform="translate(-2712.78 -5983.513)"/><path class="e" d="M2978.491,5576.174h-1.871a.561.561,0,1,0,0,1.123h1.871a.561.561,0,0,0,0-1.123Z" transform="translate(-2949.522 -5576.174)"/><path class="e" d="M2769.052,5576.735a.562.562,0,0,0-.561-.562h-1.871a.561.561,0,1,0,0,1.123h1.871A.561.561,0,0,0,2769.052,5576.735Z" transform="translate(-2755.235 -5576.174)"/><path class="e" d="M2783.4,6048.754a7.418,7.418,0,0,0-1.124-1.675.561.561,0,0,0-.839.746,6.306,6.306,0,0,1,.954,1.422.561.561,0,0,0,.5.315.568.568,0,0,0,.246-.057A.562.562,0,0,0,2783.4,6048.754Z" transform="translate(-2769.333 -6011.669)"/><path class="e" d="M2804.964,6181.174a.561.561,0,0,0-.561.561v1.87a.561.561,0,0,0,1.122,0v-1.87A.561.561,0,0,0,2804.964,6181.174Z" transform="translate(-2790.71 -6135.905)"/></g></g></svg>