<svg xmlns="http://www.w3.org/2000/svg" width="40.15" height="39.198" viewBox="0 0 40.15 39.198"><defs><style>.a{fill:#e01e5a;}.b{fill:#36c5f0;}.c{fill:#2eb67d;}.d{fill:#ecb22e;}</style></defs><g transform="translate(0 0)"><g transform="translate(0.032 20.224)"><path class="a" d="M71.233,133.016a4.216,4.216,0,1,1-4.216-4.216h4.216Z" transform="translate(-62.8 -128.8)"/><path class="a" d="M95.8,133.016a4.216,4.216,0,1,1,8.433,0v10.541a4.216,4.216,0,0,1-8.433,0Z" transform="translate(-85.259 -128.8)"/></g><g transform="translate(0)"><path class="b" d="M100.016,71.033a4.216,4.216,0,1,1,4.216-4.216v4.216Z" transform="translate(-85.227 -62.6)"/><path class="b" d="M77.489,95.7a4.216,4.216,0,0,1,0,8.433H66.916a4.216,4.216,0,0,1,0-8.433Z" transform="translate(-62.7 -85.127)"/></g><g transform="translate(21.145)"><path class="c" d="M161.9,99.916a4.216,4.216,0,1,1,4.216,4.216H161.9Z" transform="translate(-151.359 -85.127)"/><path class="c" d="M137.333,77.389a4.216,4.216,0,0,1-8.433,0V66.816a4.216,4.216,0,1,1,8.433,0Z" transform="translate(-128.9 -62.6)"/></g><g transform="translate(21.145 20.224)"><path class="d" d="M133.116,161.8a4.216,4.216,0,1,1-4.216,4.216V161.8Z" transform="translate(-128.9 -151.259)"/><path class="d" d="M133.116,137.233a4.216,4.216,0,1,1,0-8.433h10.573a4.216,4.216,0,0,1,0,8.433Z" transform="translate(-128.9 -128.8)"/></g></g></svg>