<svg xmlns="http://www.w3.org/2000/svg" width="18" height="16" viewBox="0 0 23.905 22.03">
  <path id="Arrow" d="M1355.261,375.364a1.406,1.406,0,0,0,1.406,1.406h17.7l-7.209,7.209a1.406,1.406,0,1,0,1.988,1.988l9.608-9.608a1.4,1.4,0,0,0,.177-.216c.022-.033.036-.068.055-.1a1.415,1.415,0,0,0,.074-.139c.019-.046.029-.093.044-.14s.028-.08.036-.122a1.406,1.406,0,0,0,0-.55c-.008-.042-.024-.081-.036-.122s-.025-.095-.044-.141a1.422,1.422,0,0,0-.074-.139c-.019-.034-.034-.07-.055-.1a1.43,1.43,0,0,0-.177-.216l-9.608-9.608a1.406,1.406,0,0,0-1.988,1.988l7.209,7.209h-17.7A1.406,1.406,0,0,0,1355.261,375.364Z" transform="translate(-1355.261 -364.349)" fill="#fff"/>
</svg>
