<svg xmlns="http://www.w3.org/2000/svg" width="37.551" height="37.551" viewBox="0 0 37.551 37.551"><defs><style>.a{fill:#0077b7;}</style></defs><path class="a" d="M34.154,0H3.4A3.4,3.4,0,0,0,0,3.4V34.154a3.4,3.4,0,0,0,3.4,3.4H34.154a3.4,3.4,0,0,0,3.4-3.4V3.4A3.4,3.4,0,0,0,34.154,0ZM11.62,32.424a.988.988,0,0,1-.989.989H6.424a.988.988,0,0,1-.989-.989V14.785a.988.988,0,0,1,.989-.989h4.208a.988.988,0,0,1,.989.989ZM8.527,12.134a4,4,0,1,1,4-4A4,4,0,0,1,8.527,12.134ZM33.61,32.5a.909.909,0,0,1-.909.909H28.186a.909.909,0,0,1-.909-.909V24.23c0-1.234.362-5.409-3.226-5.409-2.783,0-3.347,2.857-3.461,4.139V32.5a.909.909,0,0,1-.909.909H15.315a.909.909,0,0,1-.909-.909v-17.8a.909.909,0,0,1,.909-.909h4.367a.909.909,0,0,1,.909.909v1.539c1.032-1.549,2.565-2.744,5.83-2.744,7.23,0,7.189,6.755,7.189,10.466V32.5Z"/></svg>