<svg xmlns="http://www.w3.org/2000/svg" width="43.419" height="35.278" viewBox="0 0 43.419 35.278"><defs><style>.a{fill:#03a9f4;}</style></defs><path class="a" d="M43.419,52.176a18.559,18.559,0,0,1-5.129,1.406,8.851,8.851,0,0,0,3.916-4.92,17.789,17.789,0,0,1-5.644,2.155,8.9,8.9,0,0,0-15.4,6.087,9.165,9.165,0,0,0,.206,2.03A25.2,25.2,0,0,1,3.023,49.623a8.9,8.9,0,0,0,2.735,11.9,8.791,8.791,0,0,1-4.022-1.1v.1a8.942,8.942,0,0,0,7.132,8.746,8.884,8.884,0,0,1-2.334.293,7.87,7.87,0,0,1-1.685-.152,8.986,8.986,0,0,0,8.317,6.2,17.885,17.885,0,0,1-11.037,3.8A16.673,16.673,0,0,1,0,79.283a25.059,25.059,0,0,0,13.655,3.995c16.38,0,25.335-13.568,25.335-25.329,0-.393-.014-.773-.033-1.151A17.758,17.758,0,0,0,43.419,52.176Z" transform="translate(0 -48)"/></svg>