<svg id="ExternalLink" xmlns="http://www.w3.org/2000/svg" width="20.479" height="20.488" viewBox="0 0 20.479 20.488">
  <path id="Path_738" data-name="Path 738" d="M15.367,106.689v8.09a1.276,1.276,0,0,1-1.276,1.276H2.984a1.276,1.276,0,0,1-1.276-1.276V103.7a1.276,1.276,0,0,1,1.276-1.276h8.149a.853.853,0,0,0,.853-.853h0a.853.853,0,0,0-.853-.853H2.56A2.559,2.559,0,0,0,0,103.272V115.2a2.56,2.56,0,0,0,2.559,2.559H14.515a2.56,2.56,0,0,0,2.559-2.559v-8.515a.853.853,0,1,0-1.707,0" transform="translate(-0.001 -97.274)" fill="#00013d"/>
  <path id="Path_739" data-name="Path 739" d="M190.438,0H183.9a.855.855,0,1,0,0,1.709h3.62l-11.3,11.3a.855.855,0,0,0,1.209,1.209l11.3-11.3V6.538a.855.855,0,0,0,1.709,0V0Z" transform="translate(-169.96)" fill="#00013d"/>
</svg>
