<svg xmlns="http://www.w3.org/2000/svg" width="118" height="101.545" viewBox="0 0 118 101.545"><defs><style>.a{fill:#84bd00;}.b{fill:#5e53c7;}.c{fill:#009fdf;}.d{fill:#fff;}.e{fill:#e1e1e5;}.f{fill:#1e243a;}</style></defs><g transform="translate(-470.602 -5413.515)"><g transform="translate(552.157 5416.816)"><circle class="a" cx="17.936" cy="17.936" r="17.936" transform="translate(0 0)"/></g><g transform="translate(486.456 5446.614)"><g transform="translate(0 0)"><rect class="a" width="10.369" height="3.685" transform="translate(0 9.273) rotate(-63.421)"/></g></g><g transform="translate(483.493 5416.399)"><circle class="b" cx="16.325" cy="16.325" r="16.325" transform="translate(0 0)"/></g><g transform="translate(480.937 5454.104)"><rect class="b" width="4.37" height="11.655" transform="translate(0 3.909) rotate(-63.421)"/></g><g transform="translate(473.919 5459.527)"><rect class="b" width="19.453" height="7.284" transform="translate(0 17.397) rotate(-63.421)"/></g><g transform="translate(552.157 5469.438)"><rect class="c" width="29.523" height="10.555"/></g><g transform="translate(555.268 5432.19)"><path class="c" d="M1591.885,5673.812l15.526-16.138h-29.829Z" transform="translate(-1577.583 -5657.674)"/></g><g transform="translate(555.268 5425.995)"><path class="c" d="M1580.795,5576.674l-3.212,6.2h29.829l-3.212-6.2Z" transform="translate(-1577.583 -5576.674)"/></g><g transform="translate(480.609 5413.515)"><circle class="d" cx="13.583" cy="13.583" r="13.583" transform="translate(0 19.209) rotate(-45)"/></g><g transform="translate(489.402 5485.078)"><path class="e" d="M716.4,6352.423a3.558,3.558,0,0,0,3.558,3.558h72.351a3.558,3.558,0,0,0,3.558-3.558v-3.25H716.4Z" transform="translate(-716.403 -6349.174)"/></g><g transform="translate(519.69 5491.35)"><rect class="e" width="18.509" height="18.509" transform="translate(0 0)"/></g><g transform="translate(512.729 5509.018)"><path class="e" d="M1051.031,6662.174H1024.51a3.108,3.108,0,0,0-3.107,3.107v2.324h32.735v-2.324A3.107,3.107,0,0,0,1051.031,6662.174Z" transform="translate(-1021.403 -6662.174)"/></g><g transform="translate(556.096 5475.059)"><rect class="e" width="25.316" height="4.971" transform="translate(0 0)"/></g><g transform="translate(494.45 5446.224)"><path class="f" d="M848.141,5857.465h-7.648a3.561,3.561,0,0,1-3.557-3.557,6.31,6.31,0,0,0-12.62,0v.307a3.331,3.331,0,0,1-3.327,3.327,4.48,4.48,0,0,0-4.474,4.475v8.184a3.557,3.557,0,1,1-7.113,0v-23.557a5.469,5.469,0,1,0-10.937,0v17.975a3.174,3.174,0,0,1-6.348,0v-3.06a4.326,4.326,0,0,0-4.321-4.321h-4.819a.573.573,0,1,0,0,1.146H787.8a3.178,3.178,0,0,1,3.174,3.175v3.06a4.321,4.321,0,0,0,8.643,0v-17.975a4.321,4.321,0,0,1,8.643,0V5870.2a4.7,4.7,0,1,0,9.408,0v-8.184a3.331,3.331,0,0,1,3.327-3.328,4.479,4.479,0,0,0,4.474-4.474v-.307a5.163,5.163,0,0,1,10.325,0,4.709,4.709,0,0,0,4.7,4.7h7.648a.573.573,0,1,0,0-1.147Z" transform="translate(-782.403 -5841.174)"/></g><g transform="translate(488.653 5436.779)"><g transform="translate(0 0)"><g transform="translate(26.919)"><path class="f" d="M1095.157,5717.677h-36.011a.573.573,0,1,0,0,1.147h36.011a.573.573,0,1,0,0-1.147Z" transform="translate(-1058.572 -5717.677)"/></g><g transform="translate(0 25.737)"><path class="f" d="M786.955,6071.651a.574.574,0,0,0-.574.573v7.169a3.556,3.556,0,0,1-3.556,3.556H711.317a3.56,3.56,0,0,1-3.556-3.556v-24.646a.574.574,0,1,0-1.147,0v24.646a4.708,4.708,0,0,0,4.7,4.7h71.509a4.7,4.7,0,0,0,4.7-4.7v-7.169A.574.574,0,0,0,786.955,6071.651Z" transform="translate(-706.613 -6054.174)"/></g><g transform="translate(79.768 15.832)"><path class="f" d="M1750.124,5924.674a.574.574,0,0,0-.574.574v13.959a.574.574,0,0,0,1.147,0v-13.959A.574.574,0,0,0,1750.124,5924.674Z" transform="translate(-1749.55 -5924.674)"/></g><g transform="translate(0.162 47.697)"><path class="f" d="M788.745,6341.3l-79.446,0a.573.573,0,1,0,0,1.147h79.446a.574.574,0,0,0,0-1.147Z" transform="translate(-708.725 -6341.298)"/></g><g transform="translate(23.531 71.683)"><path class="f" d="M1044.481,6654.9h-26.573a3.645,3.645,0,0,0-3.641,3.641v2.384a.574.574,0,0,0,.574.574h32.707a.574.574,0,0,0,.574-.574v-2.384A3.645,3.645,0,0,0,1044.481,6654.9Zm2.494,5.452h-31.56v-1.811a2.5,2.5,0,0,1,2.494-2.494h26.573a2.5,2.5,0,0,1,2.494,2.494Z" transform="translate(-1014.268 -6654.902)"/></g><g transform="translate(30.481 54.921)"><path class="f" d="M1105.713,6435.742a.574.574,0,0,0-.574.574v16.762a.574.574,0,0,0,1.147,0v-16.762A.574.574,0,0,0,1105.713,6435.742Z" transform="translate(-1105.139 -6435.742)"/></g><g transform="translate(49.287 54.921)"><path class="f" d="M1351.6,6435.742a.574.574,0,0,0-.574.574v16.762a.574.574,0,0,0,1.147,0v-16.762A.574.574,0,0,0,1351.6,6435.742Z" transform="translate(-1351.026 -6435.742)"/></g></g><g transform="translate(33.178 56.636)"><path class="f" d="M1140.977,6458.174a.574.574,0,0,0-.574.574v2.064a.574.574,0,0,0,1.147,0v-2.064A.574.574,0,0,0,1140.977,6458.174Z" transform="translate(-1140.403 -6458.174)"/></g><g transform="translate(33.178 62.373)"><path class="f" d="M1146.789,6540.211h-5.239v-6.464a.574.574,0,0,0-1.147,0v7.038a.573.573,0,0,0,.574.572h5.813a.573.573,0,1,0,0-1.146Z" transform="translate(-1140.403 -6533.174)"/></g></g><g transform="translate(569.481 5513.913)"><path class="f" d="M1770.172,6726.174h-6.2a.573.573,0,1,0,0,1.147h6.2a.573.573,0,1,0,0-1.147Z" transform="translate(-1763.403 -6726.174)"/></g><g transform="translate(537.94 5513.913)"><path class="f" d="M1372.126,6726.174H1351.6a.573.573,0,1,0,0,1.147h20.527a.573.573,0,1,0,0-1.147Z" transform="translate(-1351.026 -6726.174)"/></g><g transform="translate(491.008 5513.913)"><path class="f" d="M766.123,6726.174H737.977a.573.573,0,1,0,0,1.147h28.146a.573.573,0,1,0,0-1.147Z" transform="translate(-737.403 -6726.174)"/></g><g transform="translate(551.583 5416.242)"><g transform="translate(3.111 9.178)"><g transform="translate(0 6.195)"><path class="f" d="M1600.485,5650.173h-29.829a.574.574,0,0,0-.429.955l14.3,16.138a.572.572,0,0,0,.417.192h.012a.574.574,0,0,0,.413-.175l15.526-16.139a.574.574,0,0,0-.414-.972Zm-15.509,15.866-13.045-14.719h27.206Z" transform="translate(-1570.082 -5650.173)"/></g><path class="f" d="M1597.78,5569.483a.575.575,0,0,0-.509-.309h-23.4a.575.575,0,0,0-.51.309l-3.212,6.2a.574.574,0,1,0,1.019.528l3.052-5.885h22.707l3.052,5.885a.574.574,0,1,0,1.019-.528Z" transform="translate(-1570.081 -5569.174)"/><g transform="translate(3.518 0.535)"><path class="f" d="M1639.13,5576.331l-5.549,5.264-4.959-5.243a.574.574,0,0,0-.817-.017l-5.41,5.268-5.336-5.265a.574.574,0,0,0-.806.817l5.736,5.66a.573.573,0,0,0,.8,0l5.4-5.253,4.954,5.236a.574.574,0,0,0,.4.18h.015a.575.575,0,0,0,.395-.158l5.966-5.66a.573.573,0,1,0-.79-.832Z" transform="translate(-1616.083 -5576.173)"/></g><g transform="translate(9.277 6.195)"><path class="f" d="M1703.223,5650.439a.573.573,0,0,0-.74.332l-5.452,14.356-4.531-14.552a.574.574,0,1,0-1.1.341l5.025,16.139a.575.575,0,0,0,.53.4h.018a.573.573,0,0,0,.536-.371l6.042-15.909A.573.573,0,0,0,1703.223,5650.439Z" transform="translate(-1691.378 -5650.171)"/></g><g transform="translate(0 6.195)"><path class="f" d="M1600.485,5650.173h-29.829a.574.574,0,0,0-.429.955l14.3,16.138a.572.572,0,0,0,.417.192h.012a.574.574,0,0,0,.413-.175l15.526-16.139a.574.574,0,0,0-.414-.972Zm-15.509,15.866-13.045-14.719h27.206Z" transform="translate(-1570.082 -5650.173)"/></g><path class="f" d="M1597.78,5569.483a.575.575,0,0,0-.509-.309h-23.4a.575.575,0,0,0-.51.309l-3.212,6.2a.574.574,0,1,0,1.019.528l3.052-5.885h22.707l3.052,5.885a.574.574,0,1,0,1.019-.528Z" transform="translate(-1570.081 -5569.174)"/></g><g transform="translate(0 0)"><path class="f" d="M1547.912,5449.174A18.509,18.509,0,1,0,1561,5454.6,18.386,18.386,0,0,0,1547.912,5449.174Zm0,35.871a17.362,17.362,0,1,1,17.362-17.362A17.382,17.382,0,0,1,1547.912,5485.045Z" transform="translate(-1529.403 -5449.174)"/></g></g><g transform="translate(473.345 5415.816)"><g transform="translate(9.565 0)"><path class="f" d="M656,5445.4a16.9,16.9,0,1,0,8.472,9.773A16.791,16.791,0,0,0,656,5445.4Zm6.526,22.16a15.752,15.752,0,1,1,.857-12.025A15.77,15.77,0,0,1,662.526,5467.563Z" transform="translate(-631.532 -5443.608)"/></g><g transform="translate(12.317 2.752)"><path class="f" d="M688,5481.088a14.156,14.156,0,1,0,6.326,18.994A14.172,14.172,0,0,0,688,5481.088Zm5.3,18.481a13.009,13.009,0,1,1-5.814-17.455A13.024,13.024,0,0,1,693.3,5499.569Z" transform="translate(-667.516 -5479.593)"/></g><g transform="translate(30.71 6.715)"><path class="f" d="M908.828,5531.468a.573.573,0,1,0-.513,1.025,10.182,10.182,0,0,1,4.55,13.661.574.574,0,1,0,1.026.513A11.341,11.341,0,0,0,908.828,5531.468Z" transform="translate(-907.997 -5531.407)"/></g><g transform="translate(22.238 5.576)"><path class="f" d="M801.432,5516.519h0a11.307,11.307,0,0,0-3.822.678.574.574,0,0,0,.2,1.113.594.594,0,0,0,.2-.035,10.175,10.175,0,0,1,3.436-.61.573.573,0,0,0,0-1.147Z" transform="translate(-797.23 -5516.519)"/></g><g transform="translate(7.018 37.714)"><path class="f" d="M611.437,5941.98l-10.423-5.215a.58.58,0,0,0-.438-.031.574.574,0,0,0-.332.288l-1.956,3.909a.573.573,0,0,0,.256.77l10.423,5.214a.574.574,0,0,0,.77-.256l1.956-3.908a.574.574,0,0,0,.031-.438A.568.568,0,0,0,611.437,5941.98Zm-2.469,3.651-9.4-4.7,1.442-2.882,9.4,4.7Z" transform="translate(-598.228 -5936.705)"/></g><g transform="translate(0 43.137)"><path class="f" d="M522.522,6010.924a.573.573,0,0,0-.77.256l-8.447,16.884-5.488-2.746,8.447-16.885a.574.574,0,0,0-1.026-.513l-8.7,17.4a.574.574,0,0,0,.256.77l6.514,3.259a.574.574,0,0,0,.77-.256l8.7-17.4A.573.573,0,0,0,522.522,6010.924Z" transform="translate(-506.473 -6007.604)"/></g><g transform="translate(12.537 30.224)"><path class="f" d="M675.859,5838.831a.574.574,0,0,0-.77.257l-4.639,9.273a.574.574,0,1,0,1.026.513l4.639-9.273A.574.574,0,0,0,675.859,5838.831Z" transform="translate(-670.389 -5838.771)"/><g transform="translate(3.295 1.649)"><path class="f" d="M718.945,5860.387a.573.573,0,0,0-.77.256l-4.639,9.273a.574.574,0,1,0,1.026.514l4.639-9.273A.574.574,0,0,0,718.945,5860.387Z" transform="translate(-713.475 -5860.326)"/></g></g><g transform="translate(7.436 46.932)"><path class="f" d="M609.354,6057.282a.573.573,0,0,0-.77.256l-4.831,9.657a.574.574,0,0,0,.256.77.567.567,0,0,0,.256.061.574.574,0,0,0,.513-.317l4.831-9.657A.574.574,0,0,0,609.354,6057.282Z" transform="translate(-603.693 -6057.221)"/></g><g transform="translate(5.519 58.734)"><path class="f" d="M580.3,6211.593a.573.573,0,0,0-.77.256l-.844,1.686a.574.574,0,0,0,.256.77.58.58,0,0,0,.256.061.574.574,0,0,0,.514-.317l.843-1.686A.574.574,0,0,0,580.3,6211.593Z" transform="translate(-578.628 -6211.532)"/></g></g><g transform="translate(551.583 5466.569)"><g transform="translate(0 2.295)"><path class="f" d="M1559.5,6137.174h-29.523a.574.574,0,0,0-.573.574V6148.3a.573.573,0,0,0,.573.574H1559.5a.573.573,0,0,0,.573-.574v-10.555A.573.573,0,0,0,1559.5,6137.174Zm-.574,10.555H1530.55v-9.408h28.376Z" transform="translate(-1529.403 -6137.174)"/></g><g transform="translate(24.192 7.878)"><path class="f" d="M1850.993,6210.174h-4.719a.573.573,0,1,0,0,1.147h4.719a.573.573,0,1,0,0-1.147Z" transform="translate(-1845.7 -6210.174)"/></g><g transform="translate(3.901 7.878)"><path class="f" d="M1595.1,6210.174h-14.125a.574.574,0,0,0-.574.574v4.36a.574.574,0,0,0,1.147,0v-3.787H1595.1a.573.573,0,1,0,0-1.147Z" transform="translate(-1580.403 -6210.174)"/></g><g transform="translate(1.53 0)"><path class="f" d="M1580.417,6107.174h-30.441a.573.573,0,1,0,0,1.147h29.867v11.053a.574.574,0,0,0,1.147,0v-11.626A.574.574,0,0,0,1580.417,6107.174Z" transform="translate(-1549.403 -6107.174)"/></g></g><g transform="translate(517.035 5418.537)"><path class="f" d="M1219.476,5486.3a6.873,6.873,0,0,0-1.785-1.063.574.574,0,0,0-.431,1.063,5.732,5.732,0,0,1,1.487.886.574.574,0,0,0,.729-.886Z" transform="translate(-1206.255 -5484.734)"/><path class="f" d="M1150.177,5479.174h-1.912a.574.574,0,0,0,0,1.147h1.912a.574.574,0,1,0,0-1.147Z" transform="translate(-1142.337 -5479.174)"/><path class="f" d="M1264.712,5537.363a.574.574,0,0,0,.554-.593,6.875,6.875,0,0,0-.383-2.042.574.574,0,0,0-1.083.38,5.717,5.717,0,0,1,.319,1.7.573.573,0,0,0,.573.554Z" transform="translate(-1249.536 -5530.125)"/><path class="f" d="M1080.177,5479.174h-1.912a.574.574,0,0,0,0,1.147h1.912a.574.574,0,1,0,0-1.147Z" transform="translate(-1077.691 -5479.174)"/><path class="f" d="M1274.581,5603.582a.574.574,0,1,0-1.076.4,6.872,6.872,0,0,0,1.006,1.818.574.574,0,0,0,.909-.7A5.717,5.717,0,0,1,1274.581,5603.582Z" transform="translate(-1258.496 -5593.72)"/><path class="f" d="M1392.889,5657.174h-1.912a.573.573,0,1,0,0,1.147h1.912a.573.573,0,1,0,0-1.147Z" transform="translate(-1366.485 -5643.56)"/><path class="f" d="M1462.889,5657.174h-1.912a.573.573,0,1,0,0,1.147h1.912a.573.573,0,1,0,0-1.147Z" transform="translate(-1431.132 -5643.56)"/><path class="f" d="M1323.568,5652.036a5.679,5.679,0,0,1-1.69-.373.574.574,0,0,0-.415,1.07,6.87,6.87,0,0,0,2.029.448h.038a.574.574,0,0,0,.037-1.146Z" transform="translate(-1302.48 -5638.435)"/></g><g transform="translate(470.602 5478.807)"><path class="f" d="M517.443,6646.572a5.635,5.635,0,0,1-1.639-.554.574.574,0,0,0-.528,1.019,6.838,6.838,0,0,0,1.969.666.629.629,0,0,0,.1.008.574.574,0,0,0,.1-1.139Z" transform="translate(-511.573 -6616.983)"/><path class="f" d="M585.962,6655.174H584.05a.573.573,0,1,0,0,1.146h1.912a.573.573,0,1,0,0-1.146Z" transform="translate(-574.843 -6625.498)"/><path class="f" d="M571.808,6461.446a.573.573,0,0,0-.778-.229,5.693,5.693,0,0,1-1.627.588.574.574,0,0,0,.222,1.126,6.8,6.8,0,0,0,1.954-.708A.573.573,0,0,0,571.808,6461.446Z" transform="translate(-561.419 -6446.311)"/><path class="f" d="M471.136,6526.607h.04a.574.574,0,0,0,.572-.534,5.7,5.7,0,0,1,.379-1.688.574.574,0,1,0-1.068-.418A6.848,6.848,0,0,0,470.6,6526,.573.573,0,0,0,471.136,6526.607Z" transform="translate(-470.602 -6503.991)"/><path class="f" d="M473.975,6593.118a.574.574,0,1,0-1.113.277,6.848,6.848,0,0,0,.8,1.917.572.572,0,0,0,.49.274.563.563,0,0,0,.3-.085.573.573,0,0,0,.19-.789A5.687,5.687,0,0,1,473.975,6593.118Z" transform="translate(-472.673 -6567.786)"/><path class="f" d="M505.582,6476.522a.574.574,0,0,0-.736-.342,6.867,6.867,0,0,0-1.822,1,.574.574,0,1,0,.7.912,5.706,5.706,0,0,1,1.518-.833A.574.574,0,0,0,505.582,6476.522Z" transform="translate(-500.337 -6460.163)"/><path class="f" d="M625.618,6407.027a.574.574,0,0,0-.686.432,5.7,5.7,0,0,1-.635,1.61.574.574,0,0,0,.991.578,6.834,6.834,0,0,0,.763-1.934A.574.574,0,0,0,625.618,6407.027Z" transform="translate(-612.469 -6396.317)"/><path class="f" d="M635.977,6337.173a.574.574,0,0,0-.574.575v1.912a.574.574,0,0,0,1.147,0v-1.912A.574.574,0,0,0,635.977,6337.173Z" transform="translate(-622.798 -6331.82)"/><path class="f" d="M935.961,6655.174h-1.912a.573.573,0,1,0,0,1.146h1.912a.573.573,0,1,0,0-1.146Z" transform="translate(-898.073 -6625.498)"/><path class="f" d="M795.961,6655.174h-1.912a.573.573,0,1,0,0,1.146h1.912a.573.573,0,1,0,0-1.146Z" transform="translate(-768.78 -6625.498)"/><path class="f" d="M865.961,6655.174h-1.912a.573.573,0,1,0,0,1.146h1.912a.573.573,0,1,0,0-1.146Z" transform="translate(-833.426 -6625.498)"/><path class="f" d="M725.961,6655.174h-1.912a.573.573,0,1,0,0,1.146h1.912a.573.573,0,1,0,0-1.146Z" transform="translate(-704.134 -6625.498)"/><path class="f" d="M635.977,6267.174a.574.574,0,0,0-.574.574v1.912a.574.574,0,1,0,1.147,0v-1.912A.574.574,0,0,0,635.977,6267.174Z" transform="translate(-622.798 -6267.174)"/><path class="f" d="M655.961,6655.174h-1.912a.573.573,0,1,0,0,1.146h1.912a.573.573,0,1,0,0-1.146Z" transform="translate(-639.488 -6625.498)"/></g></g></svg>