<svg xmlns="http://www.w3.org/2000/svg" width="131.965" height="110" viewBox="0 0 131.965 110"><defs><style>.a{fill:#5e53c7;}.b{fill:#009fdf;}.c{fill:#84bd00;}.d{fill:#e1e1e5;}.e{fill:#1e243a;}</style></defs><g transform="translate(-4727.403 -5454.174)"><g transform="translate(4742.12 5534.771)"><path class="a" d="M4899.591,6409.61l9.327-6.218-9.327-6.218Z" transform="translate(-4899.591 -6397.175)"/></g><g transform="translate(4760.693 5478.319)"><circle class="b" cx="30.085" cy="30.085" r="30.085" transform="translate(0)"/></g><g transform="translate(4826.194 5461.473)"><path class="a" d="M13.718,0h2.137A13.718,13.718,0,0,1,29.573,13.718v0A13.718,13.718,0,0,1,15.855,27.436H13.718A13.718,13.718,0,0,1,0,13.718v0A13.718,13.718,0,0,1,13.718,0Z" transform="translate(0 0)"/></g><g transform="translate(4760.633 5486.393)"><path class="c" d="M5129.486,5842.223a2.564,2.564,0,0,1,.266-3.224l1.923-2a2.566,2.566,0,0,0-1.021-4.206l-4.821-1.649c-9.342,9.995-11.592,20.535-8.041,31.522l3.663-2.639a2.564,2.564,0,0,0,.964-2.8h0a2.567,2.567,0,0,1,3.769-2.928l2.233,1.316a2.568,2.568,0,0,0,3.174-.454l2.481-2.642a2.565,2.565,0,0,0,.249-3.206Z" transform="translate(-5116.197 -5831.141)"/></g><g transform="translate(4793.452 5478.487)"><path class="c" d="M5500.694,5738.629l-.5,6.405a2.385,2.385,0,0,0,2.378,2.572h.621a2.385,2.385,0,0,1,2.283,3.074l-.051.171a2.385,2.385,0,0,0,2.774,3.022l4.756-1a2.384,2.384,0,0,1,2.869,2.511h0a2.387,2.387,0,0,0,3.239,2.4l5.62-2.172C5520.963,5747.067,5513.285,5741.19,5500.694,5738.629Z" transform="translate(-5500.183 -5738.629)"/></g><g transform="translate(4774.643 5514.959)"><path class="c" d="M5307.228,6167.564h0a2.861,2.861,0,0,1-4.043.849h0a2.864,2.864,0,0,0-4.154,1.041l-4.3,8.247a2.862,2.862,0,0,1-4.381.867h0a3.71,3.71,0,0,0-5.058.265l-5.184,5.379c17.512,8.328,32.111,5.358,43.027-11.893l-9.4-6.182A4.656,4.656,0,0,0,5307.228,6167.564Z" transform="translate(-5280.111 -6165.371)"/></g><g transform="translate(4830.734 5466.175)"><g transform="translate(0 0)"><path class="d" d="M5946.652,5598.1h-.054c-.437-6.041-13.064-4.305-9.626,5.156,3.052,6.053,9.654,9.353,9.654,9.353s6.6-3.3,9.653-9.353C5959.717,5593.8,5947.089,5592.063,5946.652,5598.1Z" transform="translate(-5936.379 -5594.581)"/></g></g><g transform="translate(4748.984 5455.583)"><circle class="d" cx="6.282" cy="6.282" r="6.282" transform="translate(0 0)"/></g><g transform="translate(4844.027 5522.935)"><circle class="d" cx="6.282" cy="6.282" r="6.282" transform="translate(0 0)"/></g><g transform="translate(4764.197 5554.729)"><circle class="d" cx="4.402" cy="4.402" r="4.402" transform="translate(0 0)"/></g><g transform="translate(4803.941 5454.815)"><circle class="d" cx="4.915" cy="4.915" r="4.915" transform="translate(0 0)"/></g><g transform="translate(4748.343 5454.174)"><g transform="translate(11.709 23.504)"><path class="e" d="M5161.856,5738.172a30.642,30.642,0,1,0,6.584,9.768A30.66,30.66,0,0,0,5161.856,5738.172Zm-21.727,51.172a29.445,29.445,0,1,1,29.444-29.444A29.477,29.477,0,0,1,5140.129,5789.344Z" transform="translate(-5109.402 -5729.174)"/></g><g transform="translate(52.793 9.829)"><path class="e" d="M5600.378,5585.637a34.6,34.6,0,0,0-8.792-4.727l4.871-10.834a.641.641,0,0,0-1.17-.526l-5.157,11.47a.643.643,0,0,0,.378.87,33.457,33.457,0,0,1,22.67,31.684.641.641,0,1,0,1.283,0,34.484,34.484,0,0,0-6.636-20.426A34.932,34.932,0,0,0,5600.378,5585.637Z" transform="translate(-5590.075 -5569.171)"/></g><g transform="translate(10.171 12.991)"><path class="e" d="M5123.667,5612.67a34.617,34.617,0,0,0-22.075,7.912l-9.008-14.112a.641.641,0,0,0-1.081.69l9.4,14.729a.64.64,0,0,0,.447.289.6.6,0,0,0,.093.007.648.648,0,0,0,.419-.154,33.448,33.448,0,0,1,21.8-8.079.641.641,0,1,0,0-1.282Z" transform="translate(-5091.403 -5606.174)"/></g><g transform="translate(7.692 33.856)"><path class="e" d="M5083.766,5901.34a33.474,33.474,0,0,1-13.913-50.04.641.641,0,0,0-1.045-.744,34.759,34.759,0,0,0,13.864,51.7l-6.2,14.479a.641.641,0,0,0,1.179.5l6.448-15.058A.643.643,0,0,0,5083.766,5901.34Z" transform="translate(-5062.403 -5850.287)"/></g><g transform="translate(41.795 64.434)"><path class="e" d="M5515.52,6216.054l-20.906-7.959a.64.64,0,0,0-.835.4,33.43,33.43,0,0,1-31.735,22.822.64.64,0,0,0,0,1.281,34.481,34.481,0,0,0,20.492-6.683,34.825,34.825,0,0,0,12.239-16.381l20.289,7.724a.641.641,0,0,0,.455-1.2Z" transform="translate(-5461.404 -6208.053)"/></g><g transform="translate(13.244 31.578)"><path class="e" d="M5140.22,5835a1.934,1.934,0,0,1,.2-2.42l1.924-2a3.209,3.209,0,0,0-1.275-5.257l-4.821-1.649a.641.641,0,0,0-.416,1.213l4.822,1.648a1.927,1.927,0,0,1,.766,3.156l-1.924,2a3.224,3.224,0,0,0-.334,4.032l4.842,7.088a1.914,1.914,0,0,1-.187,2.4l-2.481,2.643a1.919,1.919,0,0,1-2.383.341l-2.232-1.317a3.208,3.208,0,0,0-4.71,3.658,1.925,1.925,0,0,1-.723,2.1l-3.663,2.638a.642.642,0,0,0,.376,1.162.634.634,0,0,0,.374-.121l3.664-2.64a3.214,3.214,0,0,0,1.2-3.5,1.926,1.926,0,0,1,2.828-2.2l2.233,1.316a3.19,3.19,0,0,0,3.966-.566l2.482-2.644a3.189,3.189,0,0,0,.312-4Z" transform="translate(-5127.356 -5823.637)"/></g><g transform="translate(44.469 23.671)"><path class="e" d="M5517.594,5748.159l-5.62,2.171a1.744,1.744,0,0,1-2.368-1.756,3.026,3.026,0,0,0-3.641-3.185l-4.757,1a1.744,1.744,0,0,1-2.028-2.21l.052-.172a3.027,3.027,0,0,0-2.9-3.9h-.62a1.746,1.746,0,0,1-1.74-1.883l.5-6.4a.642.642,0,0,0-1.279-.1l-.5,6.407a3.028,3.028,0,0,0,3.018,3.264h.62a1.744,1.744,0,0,1,1.671,2.248l-.052.17a3.026,3.026,0,0,0,3.52,3.834l4.757-1a1.742,1.742,0,0,1,2.1,1.835,3.022,3.022,0,0,0,4.109,3.046l5.621-2.171a.641.641,0,1,0-.462-1.2Z" transform="translate(-5492.687 -5731.13)"/></g><g transform="translate(25.659 60.143)"><path class="e" d="M5316.632,6164.908l-9.4-6.183a5.294,5.294,0,0,0-7.4,1.623,2.221,2.221,0,0,1-3.139.661,3.5,3.5,0,0,0-5.083,1.272l-4.3,8.247a2.222,2.222,0,0,1-3.4.673,4.363,4.363,0,0,0-5.932.31l-5.184,5.379a.641.641,0,0,0,.923.89l5.183-5.38a3.075,3.075,0,0,1,4.184-.218,3.5,3.5,0,0,0,5.363-1.062l4.3-8.248a2.222,2.222,0,0,1,3.224-.807,3.5,3.5,0,0,0,4.951-1.04,4.012,4.012,0,0,1,5.612-1.229l9.4,6.182a.641.641,0,0,0,.7-1.07Z" transform="translate(-5272.611 -6157.852)"/></g><g transform="translate(0 0.769)"><path class="e" d="M4979.326,5463.174a6.923,6.923,0,1,0,6.923,6.923A6.931,6.931,0,0,0,4979.326,5463.174Zm0,12.563a5.641,5.641,0,1,1,5.641-5.64A5.647,5.647,0,0,1,4979.326,5475.737Z" transform="translate(-4972.403 -5463.174)"/></g><g transform="translate(95.043 68.12)"><path class="e" d="M6091.326,6251.173a6.923,6.923,0,1,0,6.924,6.924A6.932,6.932,0,0,0,6091.326,6251.173Zm0,12.565a5.641,5.641,0,1,1,5.641-5.642A5.649,5.649,0,0,1,6091.326,6263.738Z" transform="translate(-6084.402 -6251.173)"/></g><g transform="translate(15.214 99.915)"><path class="e" d="M5155.446,6623.175a5.042,5.042,0,1,0,5.044,5.043A5.049,5.049,0,0,0,5155.446,6623.175Zm0,8.8a3.761,3.761,0,1,1,3.76-3.76A3.765,3.765,0,0,1,5155.446,6631.978Z" transform="translate(-5150.403 -6623.175)"/></g><g transform="translate(54.957)"><path class="e" d="M5620.958,5454.174a5.556,5.556,0,1,0,5.555,5.555A5.561,5.561,0,0,0,5620.958,5454.174Zm0,9.831a4.274,4.274,0,1,1,4.273-4.275A4.28,4.28,0,0,1,5620.958,5464Z" transform="translate(-5615.403 -5454.174)"/></g></g><g transform="translate(4825.552 5458.191)"><g transform="translate(4.538 7.345)"><path class="e" d="M5942,5587.484a2.31,2.31,0,0,1-4.5,0,6.825,6.825,0,0,0-6.887,1.508c-1.072,1.06-2.641,3.463-1.119,7.655.009.025.019.047.029.071,3.114,6.169,9.663,9.5,9.94,9.637a.644.644,0,0,0,.574,0c.277-.14,6.827-3.468,9.939-9.637a.765.765,0,0,0,.031-.071c1.522-4.192-.048-6.6-1.12-7.655A6.818,6.818,0,0,0,5942,5587.484Zm6.812,8.69c-2.569,5.06-7.786,8.174-9.064,8.88-1.277-.7-6.49-3.81-9.063-8.88-.933-2.594-.639-4.819.828-6.27a5.477,5.477,0,0,1,5.534-1.219,2.967,2.967,0,0,1,2.036,2.633.641.641,0,0,0,.64.594h.053a.639.639,0,0,0,.639-.594,2.971,2.971,0,0,1,2.036-2.633,5.481,5.481,0,0,1,5.535,1.219C5949.451,5591.354,5949.744,5593.58,5948.811,5596.174Z" transform="translate(-5928.858 -5587.111)"/></g><g transform="translate(0 2.64)"><path class="e" d="M5901.5,5532.063h-20.626a5.121,5.121,0,0,0-5.115,5.114v18.488a5.12,5.12,0,0,0,5.115,5.116H5901.5a5.121,5.121,0,0,0,5.114-5.116v-18.488A5.121,5.121,0,0,0,5901.5,5532.063Zm3.833,23.6a3.837,3.837,0,0,1-3.833,3.833h-20.626a3.837,3.837,0,0,1-3.833-3.833v-18.488a3.837,3.837,0,0,1,3.833-3.833H5901.5a3.837,3.837,0,0,1,3.833,3.833Z" transform="translate(-5875.758 -5532.063)"/></g><g transform="translate(3.645 0)"><path class="e" d="M5941.082,5501.175h-22.037a.64.64,0,1,0,0,1.281h22.037a6.217,6.217,0,0,1,6.21,6.209v19.9a.64.64,0,1,0,1.281,0v-19.9A7.5,7.5,0,0,0,5941.082,5501.175Z" transform="translate(-5918.402 -5501.175)"/></g></g><g transform="translate(4727.403 5528.106)"><g transform="translate(2.628 2.543)"><path class="e" d="M4787.717,6348.924h-25.625a3.945,3.945,0,0,0-3.94,3.94v12.8a3.946,3.946,0,0,0,3.94,3.941h25.625a3.946,3.946,0,0,0,3.94-3.941v-12.8A3.945,3.945,0,0,0,4787.717,6348.924Zm2.658,16.743a2.663,2.663,0,0,1-2.658,2.66h-25.625a2.663,2.663,0,0,1-2.658-2.66v-12.8a2.661,2.661,0,0,1,2.658-2.658h25.625a2.661,2.661,0,0,1,2.658,2.658Z" transform="translate(-4758.153 -6348.924)"/></g><g transform="translate(14.076 6.026)"><path class="e" d="M4902.415,6396l-9.327-6.218a.641.641,0,0,0-1,.534v12.435a.643.643,0,0,0,.642.642.629.629,0,0,0,.355-.108l9.327-6.217a.643.643,0,0,0,0-1.067Zm-9.042,5.554v-10.041l7.53,5.021Z" transform="translate(-4892.091 -6389.673)"/></g><g transform="translate(0 0)"><path class="e" d="M4757.189,6319.175h-23.727a6.067,6.067,0,0,0-6.06,6.06v13.47a.642.642,0,1,0,1.283,0v-13.47a4.782,4.782,0,0,1,4.776-4.778h23.727a.641.641,0,0,0,0-1.282Z" transform="translate(-4727.402 -6319.175)"/></g></g><g transform="translate(4830.052 5491.097)"><path class="e" d="M6032.895,5976.174h-2.136a.641.641,0,0,0,0,1.282h2.136a.641.641,0,1,0,0-1.282Z" transform="translate(-6021.424 -5968.481)"/><path class="e" d="M6071.029,6114.174h-2.136a.641.641,0,0,0,0,1.283h2.136a.641.641,0,0,0,0-1.283Z" transform="translate(-6056.299 -6094.687)"/><path class="e" d="M6001.03,6114.174h-2.138a.641.641,0,0,0,0,1.283h2.138a.641.641,0,0,0,0-1.283Z" transform="translate(-5992.282 -6094.687)"/><path class="e" d="M5931.167,6114.174h-2.123a.641.641,0,0,0,0,1.283h2.123a.641.641,0,1,0,0-1.283Z" transform="translate(-5928.403 -6094.687)"/><path class="e" d="M5970.061,5954.688a.642.642,0,0,0-.256-.87,5.1,5.1,0,0,1-1.465-1.192.641.641,0,0,0-.978.828,6.342,6.342,0,0,0,1.83,1.49.625.625,0,0,0,.306.079A.642.642,0,0,0,5970.061,5954.688Z" transform="translate(-5963.893 -5946.739)"/><path class="e" d="M5952.047,5889.591h.02a.64.64,0,0,0,.622-.658c0-.051,0-.1,0-.153v-1.967a.641.641,0,0,0-1.282,0v1.967c0,.063,0,.127,0,.189A.64.64,0,0,0,5952.047,5889.591Z" transform="translate(-5949.438 -5886.174)"/><path class="e" d="M6207.564,6081.922a.639.639,0,0,0-.878.217,5.1,5.1,0,0,1-1.26,1.406.641.641,0,1,0,.781,1.017,6.377,6.377,0,0,0,1.574-1.758A.641.641,0,0,0,6207.564,6081.922Z" transform="translate(-6181.519 -6065.107)"/><path class="e" d="M6226.223,6014.929a.64.64,0,1,0-1.158.548,5.062,5.062,0,0,1,.473,1.825.64.64,0,0,0,.639.6l.043,0a.642.642,0,0,0,.6-.683A6.332,6.332,0,0,0,6226.223,6014.929Z" transform="translate(-6199.652 -6003.588)"/><path class="e" d="M6141.029,6114.174h-2.137a.641.641,0,1,0,0,1.283h2.137a.641.641,0,0,0,0-1.283Z" transform="translate(-6120.315 -6094.687)"/><path class="e" d="M6102.9,5976.174h-2.138a.641.641,0,1,0,0,1.282h2.138a.641.641,0,0,0,0-1.282Z" transform="translate(-6085.441 -5968.481)"/><path class="e" d="M6173.369,5977.907a.64.64,0,0,0-.291-.859,6.284,6.284,0,0,0-2.276-.634.641.641,0,0,0-.108,1.278,5.062,5.062,0,0,1,1.817.5.634.634,0,0,0,.284.068A.641.641,0,0,0,6173.369,5977.907Z" transform="translate(-6149.449 -5968.698)"/></g><g transform="translate(4727.403 5485.712)"><path class="e" d="M4736.074,5976.649a.642.642,0,0,0-.883-.931,6.373,6.373,0,0,0-1.384,1.913.641.641,0,0,0,.307.853.624.624,0,0,0,.273.061.639.639,0,0,0,.58-.367A5.051,5.051,0,0,1,4736.074,5976.649Z" transform="translate(-4733.204 -5962.52)"/><path class="e" d="M4751.075,6175.084a5.075,5.075,0,0,1-1.588-1.019.641.641,0,1,0-.88.932,6.346,6.346,0,0,0,1.987,1.275.626.626,0,0,0,.24.047.641.641,0,0,0,.241-1.235Z" transform="translate(-4746.61 -6143.914)"/><path class="e" d="M4791.985,5957.815a.64.64,0,0,0-.641-.641h-1.637c-.185,0-.372.008-.554.023a.641.641,0,0,0,.054,1.279h.056q.22-.019.444-.019h1.637A.641.641,0,0,0,4791.985,5957.815Z" transform="translate(-4783.339 -5945.721)"/><path class="e" d="M4948.328,5856.688a.643.643,0,0,0,.758-.5,5.051,5.051,0,0,1,.723-1.742.641.641,0,1,0-1.072-.7,6.3,6.3,0,0,0-.905,2.182A.642.642,0,0,0,4948.328,5856.688Z" transform="translate(-4928.978 -5850.869)"/><path class="e" d="M4728.044,6043.158a.642.642,0,0,0,.641-.641v-2.137a.642.642,0,1,0-1.283,0v2.137A.642.642,0,0,0,4728.044,6043.158Z" transform="translate(-4727.402 -6021.229)"/><path class="e" d="M4728.686,6111.7v-1.319a.642.642,0,0,0-1.283,0v1.319a6.438,6.438,0,0,0,.064.906.642.642,0,0,0,.634.551.761.761,0,0,0,.092-.007.643.643,0,0,0,.543-.726A5.257,5.257,0,0,1,4728.686,6111.7Z" transform="translate(-4727.402 -6085.246)"/><path class="e" d="M4816.467,6192.174h-2.136a.641.641,0,1,0,0,1.282h2.136a.641.641,0,1,0,0-1.282Z" transform="translate(-4806.314 -6160.636)"/><path class="e" d="M5000.008,6243.346a.64.64,0,0,0-.472.774,5.135,5.135,0,0,1,.142,1.2v.771a.642.642,0,0,0,1.283,0v-.771a6.442,6.442,0,0,0-.179-1.506A.643.643,0,0,0,5000.008,6243.346Z" transform="translate(-4976.261 -6207.417)"/><path class="e" d="M4995.1,5823.174h-.308a6.343,6.343,0,0,0-2,.322.641.641,0,1,0,.4,1.216,5.071,5.071,0,0,1,1.6-.256h.308a.641.641,0,0,0,0-1.282Z" transform="translate(-4969.708 -5823.174)"/><path class="e" d="M5063.177,5823.174h-.548a.641.641,0,1,0,0,1.282h.548a.641.641,0,0,0,0-1.282Z" transform="translate(-5033.389 -5823.174)"/><path class="e" d="M4861.375,5958.328a.641.641,0,0,0-.078-1.28c-.1.007-.21.01-.315.01H4859.2a.641.641,0,1,0,0,1.282h1.782C4861.112,5958.34,4861.245,5958.336,4861.375,5958.328Z" transform="translate(-4847.348 -5945.604)"/><path class="e" d="M4886.466,6192.174h-2.136a.641.641,0,1,0,0,1.282h2.136a.641.641,0,0,0,0-1.282Z" transform="translate(-4870.331 -6160.636)"/><path class="e" d="M4926.468,5920.255a.642.642,0,0,0-.86.285,5.085,5.085,0,0,1-1.144,1.5.641.641,0,0,0,.858.952,6.353,6.353,0,0,0,1.433-1.878A.642.642,0,0,0,4926.468,5920.255Z" transform="translate(-4907.426 -5911.894)"/><path class="e" d="M4956.341,6196.014a6.316,6.316,0,0,0-2.1-1.079.641.641,0,1,0-.363,1.229,5.073,5.073,0,0,1,1.677.862.629.629,0,0,0,.393.135.641.641,0,0,0,.394-1.147Z" transform="translate(-4934.099 -6163.136)"/></g></g></svg>