<svg xmlns="http://www.w3.org/2000/svg" width="221.099" height="158" viewBox="0 0 221.099 158"><defs><style>.a{fill:#5e53c7;}.b{fill:#e1e1e5;}.c{fill:#009fdf;}.d{fill:#84bd00;}.e{fill:#1e243a;}</style></defs><g transform="translate(-11062.521 -5653.292)"><g transform="translate(11161.565 5725.997)"><rect class="a" width="24.892" height="77.715" transform="translate(0)"/></g><g transform="translate(11081.578 5670.799)"><path class="a" d="M11218.069,5775.354a7.12,7.12,0,0,0-4.787-1.039,13.209,13.209,0,0,0,1.973,3.687c.628.672-7.025-3.993-11.15-3.312a13.458,13.458,0,0,1,2.342,5.994c-2.643-2.98-8.662-2.283-12.175,3.09,2.345-.9,4.6-1.645,5.9-.843-4.2,2.883-6.415,5.645-5.9,8.241,2.291-.455,3.975-.132,4.589,1.561,2.033-3.686,4.725-5.366,7.866-5.775-1.885,1.487-2.62,3.787-3.09,6.274,7.3-1.142,11.212-3.529,13.205-6.556a16.311,16.311,0,0,0,5.806,5.9v4.308C11227.985,5790.609,11224.8,5779.746,11218.069,5775.354Z" transform="translate(-11194.198 -5774.268)"/></g><g transform="translate(11112.373 5778.314)"><circle class="b" cx="15.992" cy="15.992" r="15.992" transform="translate(0 0)"/></g><g transform="translate(11117.968 5720.788)"><g transform="translate(0 64.371)"><path class="c" d="M11456.074,6568.048h-.054c-.443-6.128-13.255-4.368-9.768,5.233,3.1,6.14,9.795,9.489,9.795,9.489s6.7-3.349,9.794-9.489C11469.331,6563.68,11456.518,6561.919,11456.074,6568.048Z" transform="translate(-11445.652 -6564.475)"/></g><g transform="translate(12.022 36.461)"><path class="d" d="M11537.926,6376.626l-.039-.021c2.09-4.629-7.916-8.391-9.158-.041-.166,5.681,3.385,10.752,3.385,10.752s6.188.2,10.854-3.042C11549.281,6378.668,11540.66,6372.347,11537.926,6376.626Z" transform="translate(-11528.723 -6371.618)"/></g><g transform="translate(10.418 18.34)"><path class="a" d="M11523.939,6249.568l-.033.01c-1.346-3.755-9.051-.421-5.2,4.974a6.362,6.362,0,0,0,12.25-3.414C11531.468,6244.527,11523.148,6245.659,11523.939,6249.568Z" transform="translate(-11517.641 -6246.406)"/></g><g transform="translate(21.172 0)"><path class="c" d="M11597.892,6123.144l-.024-.016c1.6-2.842-4.586-5.817-5.855-.547a5.2,5.2,0,0,0,8.669,5.741C11605.038,6125.1,11599.883,6120.562,11597.892,6123.144Z" transform="translate(-11591.951 -6119.678)"/></g></g><g transform="translate(11162.868 5676.647)"><rect class="c" width="28.655" height="28.655" transform="translate(0)"/></g><g transform="translate(11069.527 5717.386)"><path class="c" d="M11155.63,6096.174h-6.816c-3.228.956-6.4,9.858-9.524,9.913-3.541.063-7.021-8.847-10.435-9.913h-8.205a9.721,9.721,0,0,0-9.722,9.722v6.125c11.067,14.978,37.014,22.521,54.424,4.052V6105.9A9.723,9.723,0,0,0,11155.63,6096.174Z" transform="translate(-11110.928 -6096.174)"/></g><g transform="translate(11194.996 5729.181)"><rect class="d" width="50.363" height="9.262" transform="translate(0 0)"/></g><g transform="translate(11128.28 5654.215)"><path class="d" d="M11656.843,5659.673h-115.912a8.688,8.688,0,0,0-8.687,8.688v9.208l-15.34,18.574,15.34-6.951a8.688,8.688,0,0,0,8.688,8.688h1.8v-31.187H11650.7v31.187h6.146a8.688,8.688,0,0,0,8.688-8.687v-20.832A8.688,8.688,0,0,0,11656.843,5659.673Z" transform="translate(-11516.903 -5659.673)"/></g><g transform="translate(11062.521 5669.877)"><g transform="translate(6.082 0)"><g transform="translate(12.049)"><g transform="translate(5.507 33.922)"><path class="e" d="M11230.5,6002.3a.924.924,0,0,0-.773,1.054c1.217,7.882-2.338,10.912-3.455,11.653a.923.923,0,1,0,1.02,1.54c1.35-.894,5.646-4.508,4.262-13.475A.925.925,0,0,0,11230.5,6002.3Z" transform="translate(-11225.856 -6002.292)"/></g><g transform="translate(23.04 34.211)"><path class="e" d="M11353.115,6016.72c-1.585-1.05-5.151-4.258-4.054-11.364a.924.924,0,0,0-1.826-.282c-1.26,8.16,2.979,11.939,4.859,13.185a.924.924,0,0,0,1.021-1.54Z" transform="translate(-11347.005 -6004.292)"/></g><path class="e" d="M11213.1,5769.128a8.021,8.021,0,0,0-5.375-1.185.924.924,0,0,0-.761,1.293l.044.1c.205.465.386.874.551,1.236-2.595-1.186-6.389-2.689-9.078-2.247a.924.924,0,0,0-.605,1.442,12.358,12.358,0,0,1,1.671,3.34,7.278,7.278,0,0,0-3.391-.529,11.03,11.03,0,0,0-8.131,5.236.924.924,0,0,0,1.1,1.368,21.647,21.647,0,0,1,3.057-.991c-3.371,2.725-4.779,5.259-4.292,7.707a.923.923,0,0,0,1.085.726c2.975-.591,3.371.5,3.54.97a.925.925,0,0,0,1.678.131,10.2,10.2,0,0,1,4.48-4.527,15.09,15.09,0,0,0-1.421,4.408.923.923,0,0,0,1.05,1.084c6.211-.971,10.488-2.9,13.017-5.87a16.127,16.127,0,0,0,5.373,5.092.924.924,0,1,0,.957-1.58,14.514,14.514,0,0,1-5.109-5.014c-.145-.22-.28-.428-.417-.623a.913.913,0,0,0-.77-.4.924.924,0,0,0-.76.416c-1.92,2.916-5.6,4.859-11.243,5.922a7.71,7.71,0,0,1,2.472-4.408.924.924,0,0,0-.69-1.641,10.682,10.682,0,0,0-7.78,4.971,4.543,4.543,0,0,0-3.688-.906c.194-1.861,2.057-4.014,5.556-6.415a.923.923,0,0,0-.039-1.548,4.643,4.643,0,0,0-3.485-.28,8.171,8.171,0,0,1,4.594-1.99,4.777,4.777,0,0,1,3.991,1.421.923.923,0,0,0,1.605-.741,14.451,14.451,0,0,0-1.614-4.971c2.723.288,6.322,2.014,8.021,2.829.348.167.622.3.828.39a1.1,1.1,0,0,0,1.438-.194.949.949,0,0,0-.1-1.238,7.912,7.912,0,0,1-1.24-2.166,5.646,5.646,0,0,1,2.875.922,16,16,0,0,1,6.693,10.913,11.483,11.483,0,0,1-2.313,9.246.923.923,0,1,0,1.407,1.2,13.3,13.3,0,0,0,2.734-10.708A17.9,17.9,0,0,0,11213.1,5769.128Z" transform="translate(-11187.802 -5767.894)"/><g transform="translate(15.145 10.883)"><path class="e" d="M11297.276,5843.247a.924.924,0,0,0-1.279.264,15.8,15.8,0,0,1-3.2,3.26.924.924,0,1,0,1.165,1.434,17.3,17.3,0,0,0,3.582-3.678A.922.922,0,0,0,11297.276,5843.247Z" transform="translate(-11292.451 -5843.095)"/></g><g transform="translate(4.869 18.103)"><path class="e" d="M11245.247,5892.981a.924.924,0,0,0-.924.923v6.552a10.515,10.515,0,0,1-21.029,0V5893.9a.923.923,0,1,0-1.847,0v6.552a12.362,12.362,0,1,0,24.724,0V5893.9A.924.924,0,0,0,11245.247,5892.981Z" transform="translate(-11221.447 -5892.981)"/></g></g><g transform="translate(0 46.585)"><path class="e" d="M11150.172,6089.792h-6.815a.914.914,0,0,0-.263.038c-1.86.551-3.431,2.881-5.093,5.349-1.353,2.007-3.035,4.505-4.187,4.526h-.021c-1.428,0-3.266-2.5-4.889-4.707-1.733-2.357-3.369-4.583-5.233-5.166a.93.93,0,0,0-.274-.042h-8.206a10.657,10.657,0,0,0-10.646,10.646v6.125a.923.923,0,1,0,1.847,0v-6.125a8.81,8.81,0,0,1,8.8-8.8h8.051c1.259.488,2.74,2.5,4.175,4.455,2.064,2.807,4.014,5.46,6.374,5.459h.057c2.113-.037,3.849-2.613,5.686-5.341,1.3-1.93,2.77-4.111,3.974-4.572h6.665a8.809,8.809,0,0,1,8.8,8.8v10.177a.924.924,0,0,0,1.848,0v-10.177A10.658,10.658,0,0,0,11150.172,6089.792Z" transform="translate(-11104.546 -6089.792)"/></g><g transform="translate(21.713 21.621)"><path class="e" d="M11258.771,5917.55a1.6,1.6,0,0,1-2.626,0,.924.924,0,0,0-1.282,1.331,3.423,3.423,0,0,0,5.189,0,.924.924,0,0,0-1.281-1.331Z" transform="translate(-11254.58 -5917.292)"/><g transform="translate(9.407)"><path class="e" d="M11323.77,5917.55a1.6,1.6,0,0,1-2.626,0,.924.924,0,0,0-1.281,1.331,3.422,3.422,0,0,0,5.188,0,.924.924,0,0,0-1.281-1.331Z" transform="translate(-11319.579 -5917.292)"/></g></g><g transform="translate(25.114 30.738)"><path class="e" d="M11285.081,5980.4a5.619,5.619,0,0,1-5.644,0,.924.924,0,0,0-.87,1.63,7.442,7.442,0,0,0,7.383,0,.924.924,0,0,0-.869-1.63Z" transform="translate(-11278.079 -5980.29)"/></g></g><g transform="translate(0 10.299)"><path class="e" d="M11113.129,5839.645a.924.924,0,0,0-.76,1.684,34.027,34.027,0,1,1-26.809-.488.924.924,0,0,0-.7-1.711,35.873,35.873,0,1,0,28.265.516Z" transform="translate(-11062.521 -5839.061)"/></g></g><g transform="translate(11096.965 5726.955)"><path class="e" d="M11301.445,6162.292a.924.924,0,0,0-.924.923v20.546a.924.924,0,0,0,1.848,0v-20.546A.924.924,0,0,0,11301.445,6162.292Z" transform="translate(-11300.521 -6162.292)"/></g><g transform="translate(11127.356 5653.292)"><g transform="translate(0 0)"><path class="e" d="M11651.385,5653.292h-115.913a9.622,9.622,0,0,0-9.61,9.61v8.877l-15.129,18.317a.924.924,0,0,0,1.093,1.43l14.136-6.405a9.625,9.625,0,0,0,9.511,8.225h1.052a.924.924,0,1,0,0-1.848h-1.052a7.772,7.772,0,0,1-7.763-7.764.924.924,0,0,0-1.306-.842l-11.706,5.3,12.8-15.5a.926.926,0,0,0,.212-.588V5662.9a7.772,7.772,0,0,1,7.763-7.763h115.913a7.772,7.772,0,0,1,7.764,7.763v20.832a7.772,7.772,0,0,1-7.764,7.764h-5.452a.924.924,0,1,0,0,1.848h5.452a9.622,9.622,0,0,0,9.611-9.611V5662.9A9.622,9.622,0,0,0,11651.385,5653.292Z" transform="translate(-11510.521 -5653.292)"/></g><g transform="translate(25.905 12.301)"><path class="e" d="M11792.906,5738.292h-102.461a.924.924,0,0,0-.925.923v143.853a.924.924,0,0,0,.925.923h102.461a.923.923,0,0,0,.923-.923V5739.215A.923.923,0,0,0,11792.906,5738.292Zm-.924,143.852h-100.614v-142h100.614Z" transform="translate(-11689.521 -5738.292)"/></g><g transform="translate(29.089 6.223)"><path class="e" d="M11817.222,5696.292h-104.776a.923.923,0,1,0,0,1.847H11816.3v144.086a.924.924,0,0,0,1.848,0v-145.01A.924.924,0,0,0,11817.222,5696.292Z" transform="translate(-11711.521 -5696.292)"/></g><g transform="translate(34.588 22.432)"><path class="e" d="M11779.1,5808.292h-28.655a.924.924,0,0,0-.924.923v28.655a.924.924,0,0,0,.924.924h28.655a.924.924,0,0,0,.923-.924v-28.655A.923.923,0,0,0,11779.1,5808.292Zm-.924,28.654h-26.808v-26.807h26.808Z" transform="translate(-11749.521 -5808.292)"/></g><g transform="translate(36.18 19.103)"><path class="e" d="M11791.981,5785.292h-30.536a.923.923,0,1,0,0,1.847h29.612v28.021a.923.923,0,1,0,1.847,0v-28.944A.923.923,0,0,0,11791.981,5785.292Z" transform="translate(-11760.521 -5785.292)"/></g><g transform="translate(77.136 25.615)"><path class="e" d="M12051.1,5830.292h-6.657a.924.924,0,0,0,0,1.847h6.657a.924.924,0,1,0,0-1.847Z" transform="translate(-12043.521 -5830.292)"/><g transform="translate(14.906)"><path class="e" d="M12160.76,5830.292h-13.316a.924.924,0,0,0,0,1.847h13.316a.924.924,0,0,0,0-1.847Z" transform="translate(-12146.521 -5830.292)"/></g><g transform="translate(33.865)"><path class="e" d="M12282.5,5830.292h-4.053a.924.924,0,0,0,0,1.847h4.053a.924.924,0,0,0,0-1.847Z" transform="translate(-12277.521 -5830.292)"/></g></g><g transform="translate(77.136 31.018)"><g transform="translate(24.892)"><path class="e" d="M12229.47,5867.625h-13.025a.924.924,0,1,0,0,1.847h13.025a.924.924,0,0,0,0-1.847Z" transform="translate(-12215.521 -5867.625)"/></g><path class="e" d="M12062.823,5867.625h-18.38a.924.924,0,0,0,0,1.847h18.38a.924.924,0,1,0,0-1.847Z" transform="translate(-12043.521 -5867.625)"/></g><g transform="translate(77.136 36.421)"><path class="e" d="M12051.1,5904.959h-6.657a.923.923,0,0,0,0,1.847h6.657a.923.923,0,1,0,0-1.847Z" transform="translate(-12043.521 -5904.959)"/><g transform="translate(14.906)"><path class="e" d="M12160.76,5904.959h-13.316a.923.923,0,0,0,0,1.847h13.316a.923.923,0,0,0,0-1.847Z" transform="translate(-12146.521 -5904.959)"/></g><g transform="translate(33.865)"><path class="e" d="M12282.5,5904.959h-4.053a.923.923,0,0,0,0,1.847h4.053a.923.923,0,0,0,0-1.847Z" transform="translate(-12277.521 -5904.959)"/></g></g><g transform="translate(77.136 41.824)"><g transform="translate(24.892)"><path class="e" d="M12229.47,5942.292h-13.025a.923.923,0,1,0,0,1.847h13.025a.923.923,0,0,0,0-1.847Z" transform="translate(-12215.521 -5942.292)"/></g><path class="e" d="M12062.823,5942.292h-18.38a.923.923,0,0,0,0,1.847h18.38a.923.923,0,1,0,0-1.847Z" transform="translate(-12043.521 -5942.292)"/></g><g transform="translate(25.905 64.348)"><path class="e" d="M11710.85,6097.932h-20.4a.923.923,0,1,0,0,1.847h20.4a.923.923,0,1,0,0-1.847Z" transform="translate(-11689.521 -6097.932)"/></g><g transform="translate(52.871 64.401)"><path class="e" d="M11897.182,6098.292h-20.4a.923.923,0,1,0,0,1.847h20.4a.923.923,0,1,0,0-1.847Z" transform="translate(-11875.854 -6098.292)"/></g><g transform="translate(79.837 64.401)"><path class="e" d="M12083.516,6098.292h-20.406a.923.923,0,1,0,0,1.847h20.406a.923.923,0,1,0,0-1.847Z" transform="translate(-12062.186 -6098.292)"/></g><g transform="translate(106.804 64.401)"><path class="e" d="M12269.85,6098.292h-20.406a.923.923,0,0,0,0,1.847h20.406a.923.923,0,1,0,0-1.847Z" transform="translate(-12248.521 -6098.292)"/></g><g transform="translate(33.286 71.781)"><path class="e" d="M11766.337,6149.292h-24.893a.923.923,0,0,0-.924.923v77.715a.923.923,0,0,0,.924.924h24.893a.923.923,0,0,0,.923-.924v-77.715A.923.923,0,0,0,11766.337,6149.292Zm-.925,77.714h-23.044v-75.867h23.044Z" transform="translate(-11740.521 -6149.292)"/></g><g transform="translate(66.716 74.965)"><path class="e" d="M12022.808,6171.292h-50.362a.924.924,0,0,0-.925.923v9.262a.924.924,0,0,0,.925.923h50.362a.923.923,0,0,0,.923-.923v-9.262A.923.923,0,0,0,12022.808,6171.292Zm-.924,9.262h-48.516v-7.415h48.516Z" transform="translate(-11971.521 -6171.292)"/></g><g transform="translate(66.716 71.058)"><path class="e" d="M12026.859,6144.292h-54.414a.924.924,0,1,0,0,1.847h53.491v11.667a.923.923,0,1,0,1.847,0v-12.59A.924.924,0,0,0,12026.859,6144.292Z" transform="translate(-11971.521 -6144.292)"/></g><g transform="translate(63.243 93.055)"><path class="e" d="M11959.443,6296.292h-11a.924.924,0,1,0,0,1.847h11a.924.924,0,1,0,0-1.847Z" transform="translate(-11947.521 -6296.292)"/><g transform="translate(18.235)"><path class="e" d="M12093.258,6296.292h-18.812a.924.924,0,1,0,0,1.847h18.813a.924.924,0,1,0,0-1.847Z" transform="translate(-12073.521 -6296.292)"/></g><g transform="translate(43.561)"><path class="e" d="M12265.508,6296.292h-16.064a.924.924,0,0,0,0,1.847h16.064a.924.924,0,1,0,0-1.847Z" transform="translate(-12248.521 -6296.292)"/></g></g><g transform="translate(63.243 97.934)"><g transform="translate(34.009)"><path class="e" d="M12209.061,6330.005h-25.615a.924.924,0,1,0,0,1.847h25.615a.924.924,0,1,0,0-1.847Z" transform="translate(-12182.521 -6330.005)"/></g><path class="e" d="M11976.087,6330.005h-27.642a.924.924,0,1,0,0,1.847h27.642a.924.924,0,0,0,0-1.847Z" transform="translate(-11947.521 -6330.005)"/></g><g transform="translate(63.243 102.813)"><path class="e" d="M11959.443,6363.721h-11a.923.923,0,1,0,0,1.847h11a.923.923,0,1,0,0-1.847Z" transform="translate(-11947.521 -6363.721)"/><g transform="translate(18.235)"><path class="e" d="M12093.258,6363.721h-18.812a.923.923,0,1,0,0,1.847h18.813a.923.923,0,1,0,0-1.847Z" transform="translate(-12073.521 -6363.721)"/></g><g transform="translate(43.561)"><path class="e" d="M12265.508,6363.721h-16.064a.923.923,0,0,0,0,1.847h16.064a.923.923,0,1,0,0-1.847Z" transform="translate(-12248.521 -6363.721)"/></g></g><g transform="translate(63.243 107.693)"><g transform="translate(34.009)"><path class="e" d="M12209.061,6397.435h-25.615a.924.924,0,1,0,0,1.848h25.615a.924.924,0,1,0,0-1.848Z" transform="translate(-12182.521 -6397.435)"/></g><path class="e" d="M11976.087,6397.435h-27.642a.924.924,0,1,0,0,1.848h27.642a.924.924,0,0,0,0-1.848Z" transform="translate(-11947.521 -6397.435)"/></g><g transform="translate(63.243 112.572)"><path class="e" d="M11959.443,6431.149h-11a.924.924,0,1,0,0,1.848h11a.924.924,0,1,0,0-1.848Z" transform="translate(-11947.521 -6431.149)"/><g transform="translate(18.235)"><path class="e" d="M12093.258,6431.149h-18.812a.924.924,0,1,0,0,1.848h18.813a.924.924,0,1,0,0-1.848Z" transform="translate(-12073.521 -6431.149)"/></g><g transform="translate(43.561)"><path class="e" d="M12265.508,6431.149h-16.064a.924.924,0,0,0,0,1.848h16.064a.924.924,0,1,0,0-1.848Z" transform="translate(-12248.521 -6431.149)"/></g></g><g transform="translate(63.243 117.451)"><g transform="translate(34.009)"><path class="e" d="M12209.061,6464.863h-25.615a.924.924,0,0,0,0,1.848h25.615a.924.924,0,0,0,0-1.848Z" transform="translate(-12182.521 -6464.863)"/></g><path class="e" d="M11976.087,6464.863h-27.642a.924.924,0,0,0,0,1.848h27.642a.924.924,0,0,0,0-1.848Z" transform="translate(-11947.521 -6464.863)"/></g><g transform="translate(63.243 122.33)"><path class="e" d="M11959.443,6498.578h-11a.924.924,0,1,0,0,1.847h11a.924.924,0,1,0,0-1.847Z" transform="translate(-11947.521 -6498.578)"/><g transform="translate(18.235)"><path class="e" d="M12093.258,6498.578h-18.812a.924.924,0,1,0,0,1.847h18.813a.924.924,0,1,0,0-1.847Z" transform="translate(-12073.521 -6498.578)"/></g><g transform="translate(43.561)"><path class="e" d="M12265.508,6498.578h-16.064a.924.924,0,0,0,0,1.847h16.064a.924.924,0,1,0,0-1.847Z" transform="translate(-12248.521 -6498.578)"/></g></g><g transform="translate(63.243 127.209)"><g transform="translate(34.009)"><path class="e" d="M12209.061,6532.292h-25.615a.924.924,0,1,0,0,1.847h25.615a.924.924,0,1,0,0-1.847Z" transform="translate(-12182.521 -6532.292)"/></g><path class="e" d="M11976.087,6532.292h-27.642a.924.924,0,1,0,0,1.847h27.642a.924.924,0,0,0,0-1.847Z" transform="translate(-11947.521 -6532.292)"/></g></g><g transform="translate(11117.042 5719.864)"><g transform="translate(0 64.363)"><path class="e" d="M11452.756,6558.447a2.3,2.3,0,0,1-4.375,0,7.109,7.109,0,0,0-7.275,1.591c-1.133,1.122-2.8,3.659-1.2,8.056.014.034.027.068.043.1,3.2,6.34,9.922,9.756,10.207,9.9a.923.923,0,0,0,.826,0c.285-.143,7.01-3.559,10.205-9.9a.972.972,0,0,0,.045-.1c1.6-4.4-.066-6.934-1.2-8.056A7.112,7.112,0,0,0,11452.756,6558.447Zm6.76,8.964c-2.494,4.9-7.48,7.979-8.947,8.805-1.465-.827-6.451-3.907-8.945-8.805-.914-2.555-.645-4.649.783-6.061a5.279,5.279,0,0,1,5.326-1.175,2.713,2.713,0,0,1,1.889,2.437.924.924,0,0,0,.922.857h.053a.924.924,0,0,0,.922-.857,2.713,2.713,0,0,1,1.889-2.437,5.28,5.28,0,0,1,5.326,1.175C11460.16,6562.762,11460.43,6564.856,11459.516,6567.411Z" transform="translate(-11439.246 -6558.041)"/></g><g transform="translate(12.025 36.459)"><path class="e" d="M11535.673,6368.875a1.877,1.877,0,0,1-3.082-1.668,6.042,6.042,0,0,0-6.08-1.755c-1.3.379-3.573,1.6-4.156,5.514,0,.036-.008.073-.009.109-.172,5.919,3.4,11.091,3.552,11.308a.923.923,0,0,0,.727.394c.028,0,.124,0,.279,0,1.3,0,6.785-.189,11.132-3.211a.942.942,0,0,0,.087-.067c2.957-2.627,2.738-5.2,2.345-6.494A6.043,6.043,0,0,0,11535.673,6368.875Zm1.262,9.208c-3.626,2.5-8.3,2.81-9.78,2.845a19.084,19.084,0,0,1-2.964-9.745c.332-2.145,1.313-3.513,2.837-3.958a4.254,4.254,0,0,1,4.169,1.194,2.09,2.09,0,0,1,.39,2.343.924.924,0,0,0,.4,1.192l.039.021a.923.923,0,0,0,1.218-.314,2.091,2.091,0,0,1,2.175-.955,4.259,4.259,0,0,1,3.279,2.838C11539.159,6375.063,11538.55,6376.632,11536.935,6378.083Z" transform="translate(-11522.34 -6365.229)"/></g><g transform="translate(10.419 18.337)"><path class="e" d="M11524.086,6240.6a4.947,4.947,0,0,0-5.176.294,1.44,1.44,0,0,1-2.518.7,4.951,4.951,0,0,0-4.582,2.425c-.552.966-1.2,2.978.672,5.6a1.04,1.04,0,0,0,.068.085,16.728,16.728,0,0,0,8.285,4.511.9.9,0,0,0,.177.017.925.925,0,0,0,.619-.238,16.726,16.726,0,0,0,4.759-8.147.8.8,0,0,0,.014-.108C11526.652,6242.529,11525.058,6241.141,11524.086,6240.6Zm.481,4.94a5.509,5.509,0,0,1-10.613,2.958c-.93-1.321-1.116-2.552-.54-3.561a3.133,3.133,0,0,1,2.817-1.5,1.427,1.427,0,0,1,1.329.98.925.925,0,0,0,1.116.579l.034-.01a.924.924,0,0,0,.658-1.073,1.428,1.428,0,0,1,.63-1.527,3.133,3.133,0,0,1,3.188-.171C11524.2,6242.779,11524.68,6243.929,11524.567,6245.541Z" transform="translate(-11511.238 -6240.007)"/></g><g transform="translate(21.176 0)"><path class="e" d="M11594.687,6116.085a1.144,1.144,0,0,1-1.683-1.114,4.219,4.219,0,0,0-4.121-1.6c-.932.184-2.591.889-3.229,3.538-.008.035-.014.071-.019.107a13.862,13.862,0,0,0,1.671,7.639.923.923,0,0,0,.688.456,11.765,11.765,0,0,0,1.347.066,13.119,13.119,0,0,0,6.338-1.509.875.875,0,0,0,.092-.06c2.189-1.621,2.19-3.423,2-4.353A4.219,4.219,0,0,0,11594.687,6116.085Zm.028,6.005a4.349,4.349,0,0,1-7.252-4.8c.3-1.208.918-1.935,1.777-2.1a2.385,2.385,0,0,1,2.268.87.992.992,0,0,1,.1,1.165.923.923,0,0,0,.294,1.223l.023.016a.923.923,0,0,0,1.242-.205.987.987,0,0,1,1.109-.367,2.381,2.381,0,0,1,1.686,1.748A2.483,2.483,0,0,1,11594.715,6122.09Z" transform="translate(-11585.567 -6113.299)"/></g></g><g transform="translate(11111.449 5777.391)"><path class="e" d="M11417.518,6510.8a16.915,16.915,0,1,0,16.916,16.916A16.934,16.934,0,0,0,11417.518,6510.8Zm0,31.984a15.068,15.068,0,1,1,15.068-15.068A15.086,15.086,0,0,1,11417.518,6542.784Z" transform="translate(-11400.604 -6510.8)"/></g><g transform="translate(11272.221 5809.445)"><path class="e" d="M12522,6732.292h-9.552a.924.924,0,1,0,0,1.847H12522a.924.924,0,1,0,0-1.847Z" transform="translate(-12511.521 -6732.292)"/></g><g transform="translate(11248.487 5809.445)"><path class="e" d="M12361.18,6732.292h-12.735a.924.924,0,0,0,0,1.847h12.735a.924.924,0,1,0,0-1.847Z" transform="translate(-12347.521 -6732.292)"/></g><g transform="translate(11106.082 5809.445)"><path class="e" d="M11414.808,6732.292h-50.362a.924.924,0,1,0,0,1.847h50.362a.924.924,0,0,0,0-1.847Z" transform="translate(-11363.521 -6732.292)"/></g></g></svg>