<svg xmlns="http://www.w3.org/2000/svg" width="242.097" height="139.2" viewBox="0 0 242.097 139.2"><defs><style>.a{fill:#5e53c7;}.b{fill:#84bd00;}.c{fill:#e1e1e5;}.d{fill:#009fdf;}.e{fill:#1e243a;}</style></defs><g transform="translate(-2618.203 -2461)"><g transform="translate(2619.203 2467.2)"><g transform="translate(101.271 26.375)"><rect class="a" width="59.15" height="16.118"/></g><g transform="translate(156.037 123.758)"><rect class="b" width="27.505" height="8.133"/></g><g transform="translate(78.077 123.758)"><rect class="b" width="27.505" height="8.133"/></g><g transform="translate(121.736 85.696)"><rect class="c" width="12.569" height="12.569" transform="matrix(0.707, -0.707, 0.707, 0.707, 0, 8.888)"/></g><g transform="translate(180.063 62.547)"><path class="c" d="M3862.02,2992.86l3.866,3.425A10.38,10.38,0,0,0,3862.02,2992.86Z" transform="translate(-3846.979 -2978.49)"/><path class="c" d="M3807.05,2903.228a13.139,13.139,0,0,0-5.2,1.065l2.6-1.46a16.959,16.959,0,0,0-30.384,6.084l1.277,1.132a10.38,10.38,0,0,1,3.866,3.426l-3.866-3.426a10.336,10.336,0,1,0-4.705,19.54h36.408a13.181,13.181,0,0,0,0-26.362Z" transform="translate(-3760.307 -2895.679)"/></g><g transform="translate(30 0)"><rect class="b" width="193.175" height="18" transform="translate(0)"/></g><g transform="translate(40.088 4.225)"><circle class="c" cx="5.028" cy="5.028" r="5.028"/></g><g transform="translate(60.542 4.225)"><circle class="c" cx="5.028" cy="5.028" r="5.028"/></g><g transform="translate(80.997 4.225)"><circle class="c" cx="5.028" cy="5.028" r="5.028"/></g><g transform="translate(181.175 32.857)"><rect class="d" width="57" height="8"/></g><g transform="translate(0 33.933)"><rect class="d" width="80" height="9"/></g><g transform="translate(196.652 86.05)"><path class="a" d="M3893.081,3037.5h-10.759v20.651h-9.836l15.176,22.9,15.255-22.9h-9.836Z" transform="translate(-3872.486 -3037.5)"/></g></g><g transform="translate(2618.203 2461)"><g transform="translate(222.896 102.683)"><path class="e" d="M4044.312,3118a1.109,1.109,0,0,0-1.109,1.109v6.975a1.109,1.109,0,0,0,2.218,0v-6.975A1.109,1.109,0,0,0,4044.312,3118Z" transform="translate(-4043.203 -3118)"/></g><g transform="translate(0 39.955)"><path class="e" d="M2698.869,2709h-79.557a1.109,1.109,0,0,0-1.109,1.109v51.756a1.109,1.109,0,0,0,1.109,1.109h79.557a1.109,1.109,0,0,0,1.109-1.109v-51.756A1.109,1.109,0,0,0,2698.869,2709Zm-1.109,51.756h-77.339v-49.538h77.339Z" transform="translate(-2618.203 -2709)"/></g><g transform="translate(0.887 48.466)"><path class="e" d="M2702.8,2772h-77.486a1.109,1.109,0,0,0,0,2.218H2702.8a1.109,1.109,0,0,0,0-2.218Z" transform="translate(-2624.203 -2772)"/></g><g transform="translate(4.88 41.367)"><path class="e" d="M2654.382,2726a3.179,3.179,0,1,0,3.179,3.179A3.183,3.183,0,0,0,2654.382,2726Zm0,4.14a.961.961,0,1,1,.961-.961A.962.962,0,0,1,2654.382,2730.14Z" transform="translate(-2651.203 -2726)"/></g><g transform="translate(16.044 41.367)"><path class="e" d="M2729.882,2726a3.179,3.179,0,1,0,3.179,3.179A3.183,3.183,0,0,0,2729.882,2726Zm0,4.14a.961.961,0,1,1,.961-.961A.962.962,0,0,1,2729.882,2730.14Z" transform="translate(-2726.703 -2726)"/></g><g transform="translate(65.983 43.479)"><path class="e" d="M3053.473,2740h-13.161a1.109,1.109,0,0,0,0,2.218h13.161a1.109,1.109,0,0,0,0-2.218Z" transform="translate(-3039.203 -2740)"/></g><g transform="translate(8.281 56.545)"><path class="e" d="M2686.4,2819h-11.091a1.109,1.109,0,0,0,0,2.218H2686.4a1.109,1.109,0,0,0,0-2.218Z" transform="translate(-2674.203 -2819)"/><g transform="translate(19.224)"><path class="e" d="M2821.43,2819h-16.118a1.109,1.109,0,0,0,0,2.218h16.118a1.109,1.109,0,0,0,0-2.218Z" transform="translate(-2804.203 -2819)"/></g><g transform="translate(45.25)"><path class="e" d="M2999.057,2819h-17.745a1.109,1.109,0,0,0,0,2.218h17.745a1.109,1.109,0,0,0,0-2.218Z" transform="translate(-2980.203 -2819)"/></g><g transform="translate(0 6.802)"><path class="e" d="M2699.711,2865h-24.4a1.109,1.109,0,1,0,0,2.218h24.4a1.109,1.109,0,1,0,0-2.218Z" transform="translate(-2674.203 -2865)"/><g transform="translate(33.124)"><path class="e" d="M2929.183,2865h-29.871a1.109,1.109,0,1,0,0,2.218h29.871a1.109,1.109,0,1,0,0-2.218Z" transform="translate(-2898.203 -2865)"/></g></g><g transform="translate(0 13.604)"><path class="e" d="M2686.4,2911h-11.091a1.109,1.109,0,1,0,0,2.218H2686.4a1.109,1.109,0,1,0,0-2.218Z" transform="translate(-2674.203 -2911)"/><g transform="translate(19.224)"><path class="e" d="M2821.43,2911h-16.118a1.109,1.109,0,1,0,0,2.218h16.118a1.109,1.109,0,1,0,0-2.218Z" transform="translate(-2804.203 -2911)"/></g><g transform="translate(45.25)"><path class="e" d="M2999.057,2911h-17.745a1.109,1.109,0,1,0,0,2.218h17.745a1.109,1.109,0,1,0,0-2.218Z" transform="translate(-2980.203 -2911)"/></g></g><g transform="translate(0 27.209)"><path class="e" d="M2686.4,3003h-11.091a1.109,1.109,0,1,0,0,2.218H2686.4a1.109,1.109,0,1,0,0-2.218Z" transform="translate(-2674.203 -3003)"/><g transform="translate(19.224)"><path class="e" d="M2821.43,3003h-16.118a1.109,1.109,0,1,0,0,2.218h16.118a1.109,1.109,0,1,0,0-2.218Z" transform="translate(-2804.203 -3003)"/></g><g transform="translate(45.25)"><path class="e" d="M2999.057,3003h-17.745a1.109,1.109,0,1,0,0,2.218h17.745a1.109,1.109,0,1,0,0-2.218Z" transform="translate(-2980.203 -3003)"/></g></g><g transform="translate(0 20.407)"><path class="e" d="M2699.711,2957h-24.4a1.109,1.109,0,0,0,0,2.218h24.4a1.109,1.109,0,1,0,0-2.218Z" transform="translate(-2674.203 -2957)"/><g transform="translate(33.124)"><path class="e" d="M2929.183,2957h-29.871a1.109,1.109,0,0,0,0,2.218h29.871a1.109,1.109,0,0,0,0-2.218Z" transform="translate(-2898.203 -2957)"/></g></g></g><g transform="translate(27.209)"><g transform="translate(2.514 96.538)"><path class="e" d="M2978.237,3087.572H2821.421v-19.963a1.109,1.109,0,0,0-2.218,0v21.072a1.109,1.109,0,0,0,1.109,1.109h157.925a1.109,1.109,0,1,0,0-2.218Z" transform="translate(-2819.203 -3066.5)"/></g><g transform="translate(2.514 5.471)"><path class="e" d="M3013.412,2498H2820.386a1.148,1.148,0,0,0-1.183,1.109V2529.2a1.185,1.185,0,0,0,2.365,0v-28.983h190.661v28.244a1.185,1.185,0,0,0,2.365,0v-29.353A1.148,1.148,0,0,0,3013.412,2498Z" transform="translate(-2819.203 -2498)"/></g><g transform="translate(2.514 22.647)"><path class="e" d="M3013.412,2614.151H2820.386a1.111,1.111,0,1,0,0,2.218h193.026a1.111,1.111,0,1,0,0-2.218Z" transform="translate(-2819.203 -2614.151)"/></g><g transform="translate(10.647 9.316)"><path class="e" d="M2880.34,2524a6.137,6.137,0,1,0,6.137,6.137A6.144,6.144,0,0,0,2880.34,2524Zm0,10.056a3.919,3.919,0,1,1,3.919-3.919A3.923,3.923,0,0,1,2880.34,2534.056Z" transform="translate(-2874.203 -2524)"/></g><g transform="translate(32.058 9.316)"><path class="e" d="M3011.34,2524a6.137,6.137,0,1,0,6.137,6.137A6.144,6.144,0,0,0,3011.34,2524Zm0,10.056a3.919,3.919,0,1,1,3.918-3.919A3.923,3.923,0,0,1,3011.34,2534.056Z" transform="translate(-3005.203 -2524)"/></g><g transform="translate(52.745 9.316)"><path class="e" d="M3142.339,2524a6.137,6.137,0,1,0,6.137,6.137A6.144,6.144,0,0,0,3142.339,2524Zm0,10.056a3.919,3.919,0,1,1,3.919-3.919A3.923,3.923,0,0,1,3142.339,2534.056Z" transform="translate(-3136.203 -2524)"/></g><g transform="translate(143.192 11.83)"><path class="e" d="M3735.449,2541h-46.137a1.109,1.109,0,1,0,0,2.218h46.137a1.109,1.109,0,0,0,0-2.218Z" transform="translate(-3688.203 -2541)"/></g><g transform="translate(169.809 18.041)"><path class="e" d="M3888.831,2583h-19.519a1.109,1.109,0,1,0,0,2.218h19.519a1.109,1.109,0,0,0,0-2.218Z" transform="translate(-3868.203 -2583)"/></g><g transform="translate(0 41.367)"><path class="e" d="M2805.382,2726a3.179,3.179,0,1,0,3.179,3.179A3.183,3.183,0,0,0,2805.382,2726Zm0,4.14a.961.961,0,1,1,.961-.961A.962.962,0,0,1,2805.382,2730.14Z" transform="translate(-2802.203 -2726)"/></g><g transform="translate(73.416 31.707)"><path class="e" d="M3316.462,2663h-59.15a1.109,1.109,0,0,0-1.109,1.109v16.118a1.109,1.109,0,0,0,1.109,1.109h59.15a1.109,1.109,0,0,0,1.109-1.109v-16.118A1.109,1.109,0,0,0,3316.462,2663Zm-1.109,16.118h-56.932v-13.9h56.932Z" transform="translate(-3256.203 -2663)"/></g><g transform="translate(91.215 35.531)"><path class="e" d="M3385.522,2689h-3.261a1.109,1.109,0,1,0,0,2.218h3.261a1.109,1.109,0,1,0,0-2.218Z" transform="translate(-3381.152 -2689)"/></g><g transform="translate(75.827 35.606)"><path class="e" d="M3294.3,2689h-10.987a1.109,1.109,0,0,0-1.109,1.109v5.176a1.109,1.109,0,0,0,2.218,0v-4.066h9.878a1.109,1.109,0,1,0,0-2.218Z" transform="translate(-3282.203 -2689)"/></g><g transform="translate(102.931 49.546)"><path class="e" d="M3457.312,2772a1.109,1.109,0,0,0-1.109,1.109v39.482a1.109,1.109,0,0,0,2.218,0v-39.482A1.109,1.109,0,0,0,3457.312,2772Z" transform="translate(-3456.203 -2772)"/></g><g transform="translate(93.977 90.866)"><path class="e" d="M3406.38,3039.721a1.109,1.109,0,0,0-1.568,0l-8.888,8.888a1.109,1.109,0,0,0,0,1.568l8.888,8.888a1.109,1.109,0,0,0,1.568,0l8.888-8.888a1.109,1.109,0,0,0,0-1.568Zm-.784,16.992-7.32-7.32,7.32-7.32,7.319,7.32Z" transform="translate(-3395.599 -3039.396)"/></g><g transform="translate(113.572 101.344)"><path class="e" d="M3545.7,3099h-28.392a1.109,1.109,0,1,0,0,2.218h27.283v25.508a1.109,1.109,0,0,0,2.218,0v-26.618A1.109,1.109,0,0,0,3545.7,3099Z" transform="translate(-3516.203 -3099)"/></g><g transform="translate(128.793 128.849)"><path class="e" d="M3640.816,3285h-27.5a1.109,1.109,0,0,0-1.109,1.109v8.133a1.109,1.109,0,0,0,1.109,1.109h27.5a1.109,1.109,0,0,0,1.109-1.109v-8.133A1.109,1.109,0,0,0,3640.816,3285Zm-1.109,8.133h-25.287v-5.915h25.287Z" transform="translate(-3612.203 -3285)"/></g><g transform="translate(64.103 101.344)"><path class="e" d="M3234.7,3099h-28.392a1.109,1.109,0,0,0-1.109,1.109v26.618a1.109,1.109,0,0,0,2.218,0v-25.508H3234.7a1.109,1.109,0,0,0,0-2.218Z" transform="translate(-3205.203 -3099)"/></g><g transform="translate(49.768 128.849)"><path class="e" d="M3143.817,3285h-27.5a1.109,1.109,0,0,0-1.109,1.109v8.133a1.109,1.109,0,0,0,1.109,1.109h27.5a1.109,1.109,0,0,0,1.109-1.109v-8.133A1.109,1.109,0,0,0,3143.817,3285Zm-1.109,8.133h-25.287v-5.915h25.287Z" transform="translate(-3115.203 -3285)"/></g><g transform="translate(109.226 54.207)"><path class="e" d="M3497.312,2806a1.109,1.109,0,0,0-1.109,1.109v18.041a1.109,1.109,0,1,0,2.218,0v-18.041A1.109,1.109,0,0,0,3497.312,2806Z" transform="translate(-3496.203 -2806)"/></g><g transform="translate(96.478 70.688)"><path class="e" d="M3416.312,2911a1.109,1.109,0,0,0-1.109,1.109v17.6a1.109,1.109,0,1,0,2.218,0v-17.6A1.109,1.109,0,0,0,3416.312,2911Z" transform="translate(-3415.203 -2911)"/></g><g transform="translate(175.872 88.672)"><path class="e" d="M3913.954,3030h-3.642a1.109,1.109,0,1,0,0,2.218h3.642a1.109,1.109,0,0,0,0-2.218Z" transform="translate(-3909.203 -3030)"/></g><g transform="translate(12.421)"><path class="e" d="M3076.269,2461H2887.387a1.112,1.112,0,1,0,0,2.218h187.7v34.529a1.187,1.187,0,0,0,2.369,0v-35.638A1.149,1.149,0,0,0,3076.269,2461Z" transform="translate(-2886.202 -2461)"/></g></g><g transform="translate(179.954 43.229)"><g transform="translate(1.389)"><path class="e" d="M3820.244,2706h-56.932a1.109,1.109,0,0,0-1.109,1.109V2751.1a1.109,1.109,0,1,0,2.218,0v-42.884h54.714v40.3a1.109,1.109,0,1,0,2.218,0v-41.405A1.109,1.109,0,0,0,3820.244,2706Z" transform="translate(-3762.203 -2706)"/></g><g transform="translate(1.389 8.059)"><path class="e" d="M3820.244,2760.5h-56.932a1.109,1.109,0,0,0,0,2.218h56.932a1.109,1.109,0,0,0,0-2.218Z" transform="translate(-3762.203 -2760.5)"/></g><g transform="translate(4.643 2.514)"><path class="e" d="M3786.791,2723a2.588,2.588,0,1,0,2.588,2.588A2.591,2.591,0,0,0,3786.791,2723Zm0,2.958a.37.37,0,1,1,.37-.37A.37.37,0,0,1,3786.791,2725.958Z" transform="translate(-3784.203 -2723)"/></g><g transform="translate(13.219 2.514)"><path class="e" d="M3844.791,2723a2.588,2.588,0,1,0,2.588,2.588A2.591,2.591,0,0,0,3844.791,2723Zm0,2.958a.37.37,0,1,1,.37-.37A.37.37,0,0,1,3844.791,2725.958Z" transform="translate(-3842.203 -2723)"/></g><g transform="translate(21.796 2.514)"><path class="e" d="M3902.791,2723a2.588,2.588,0,1,0,2.588,2.588A2.591,2.591,0,0,0,3902.791,2723Zm0,2.958a.37.37,0,1,1,.37-.37A.37.37,0,0,1,3902.791,2725.958Z" transform="translate(-3900.203 -2723)"/></g><g transform="translate(0 26.94)"><g transform="translate(0 13.239)"><path class="e" d="M3764.252,2977.709a11.445,11.445,0,0,0,0,22.89,1.109,1.109,0,0,0,0-2.218A9.227,9.227,0,1,1,3771.9,2984a1.109,1.109,0,0,0,1.838-1.242A11.44,11.44,0,0,0,3764.252,2977.709Z" transform="translate(-3752.807 -2977.709)"/></g><g transform="translate(13.764)"><path class="e" d="M3863.539,2888.179a18.072,18.072,0,0,0-17.629,14.106,1.109,1.109,0,1,0,2.165.484,15.85,15.85,0,0,1,28.4-5.685,1.109,1.109,0,0,0,1.809-1.284A18.109,18.109,0,0,0,3863.539,2888.179Z" transform="translate(-3845.883 -2888.179)"/></g><g transform="translate(10.336 33.911)"><path class="e" d="M3839.062,3117.5h-15.25a1.109,1.109,0,1,0,0,2.218h15.25a1.109,1.109,0,1,0,0-2.218Z" transform="translate(-3822.703 -3117.5)"/></g><g transform="translate(37.564 7.549)"><path class="e" d="M4017.122,2939.227a14.194,14.194,0,0,0-5.639,1.156,1.109,1.109,0,1,0,.876,2.038,12.073,12.073,0,1,1,4.763,23.168h-9.179a1.109,1.109,0,1,0,0,2.218h9.179a14.29,14.29,0,0,0,0-28.58Z" transform="translate(-4006.833 -2939.227)"/></g></g><g transform="translate(16.588 47.911)"><path class="e" d="M3896.526,3050.651H3887.8v-19.542a1.109,1.109,0,0,0-1.109-1.109h-10.759a1.109,1.109,0,0,0-1.109,1.109v19.542h-8.727a1.109,1.109,0,0,0-.924,1.722l15.176,22.9a1.109,1.109,0,0,0,.923.5h0a1.109,1.109,0,0,0,.923-.494l15.255-22.9a1.109,1.109,0,0,0-.923-1.724Zm-15.253,22-13.113-19.785h7.771a1.109,1.109,0,0,0,1.109-1.109v-19.542h8.541v19.542a1.109,1.109,0,0,0,1.109,1.109h7.765Z" transform="translate(-3864.986 -3030)"/></g><g transform="translate(37.027 47.911)"><path class="e" d="M4007.954,3030h-3.642a1.109,1.109,0,0,0,0,2.218h3.642a1.109,1.109,0,0,0,0-2.218Z" transform="translate(-4003.203 -3030)"/></g><g transform="translate(7.304 15.823)"><path class="e" d="M3848.266,2813h-44.954a1.109,1.109,0,0,0-1.109,1.109v24.4a1.109,1.109,0,1,0,2.218,0v-23.29h42.736v18.41a1.109,1.109,0,0,0,2.218,0v-19.52A1.109,1.109,0,0,0,3848.266,2813Z" transform="translate(-3802.203 -2813)"/></g></g></g></g></svg>