<svg xmlns="http://www.w3.org/2000/svg" width="189.968" height="165.634" viewBox="0 0 189.968 165.634"><defs><style>.a{fill:#5e53c7;}.b{fill:#009fdf;}.c{fill:#84bd00;}.d{fill:#e1e1e5;}.e{fill:#1e243a;}</style></defs><g transform="translate(-2586.214 -5535.174)"><g transform="translate(2654.189 5541.405)"><rect class="a" width="18.898" height="4.108" transform="translate(0)"/></g><g transform="translate(2637.203 5550.033)"><path class="a" d="M2994.325,5643.674h-18.693v35.879h-17.089l26.367,39.783,26.5-39.783h-17.089Z" transform="translate(-2958.543 -5643.674)"/></g><g transform="translate(2700.134 5549.989)"><path class="b" d="M3454.261,5657.346l4.8-4.8-5.21-5.21-4.836,4.836a16.1,16.1,0,0,0-4.771-1.961v-6.854h-7.368v6.854a16.107,16.107,0,0,0-4.771,1.961l-4.835-4.836-5.21,5.21,4.8,4.8a16.106,16.106,0,0,0-2.033,4.8h-6.75v7.368h6.687a16.1,16.1,0,0,0,1.991,4.908l-4.7,4.7,5.21,5.21,4.667-4.667a16.052,16.052,0,0,0,4.94,2.065v6.581h7.368v-6.581a16.057,16.057,0,0,0,4.94-2.065l4.667,4.667,5.21-5.21-4.7-4.7a16.1,16.1,0,0,0,1.992-4.908h6.687v-7.368h-6.751A16.093,16.093,0,0,0,3454.261,5657.346Zm-13.7,17.9a9.273,9.273,0,1,1,9.273-9.272A9.273,9.273,0,0,1,3440.564,5675.243Z" transform="translate(-3418.083 -5643.353)"/></g><g transform="translate(2724.989 5601.821)"><path class="b" d="M3626.615,6032.309l3.59-3.59-3.893-3.894-3.614,3.613a12.058,12.058,0,0,0-3.565-1.465v-5.121h-5.505v5.121a12.071,12.071,0,0,0-3.565,1.465l-3.613-3.613-3.893,3.894,3.589,3.59a12.043,12.043,0,0,0-1.519,3.589h-5.044v5.5h5a12.029,12.029,0,0,0,1.488,3.668l-3.511,3.511,3.893,3.894,3.487-3.488a12,12,0,0,0,3.691,1.544v4.918h5.505v-4.918a12,12,0,0,0,3.691-1.544l3.488,3.488,3.893-3.894-3.512-3.511a12.017,12.017,0,0,0,1.488-3.668h5v-5.5h-5.044A12.044,12.044,0,0,0,3626.615,6032.309Zm-10.234,13.373a6.929,6.929,0,1,1,6.928-6.929A6.929,6.929,0,0,1,3616.381,6045.682Z" transform="translate(-3599.583 -6021.853)"/></g><g transform="translate(2587.268 5636.444)"><circle class="c" cx="29.922" cy="29.922" r="29.922" transform="translate(0 0)"/></g><g transform="translate(2640.196 5646.646)"><path class="d" d="M2986.429,6361.5h115.624a6.667,6.667,0,0,0,6.667-6.667v-5.657H2980.4Z" transform="translate(-2980.403 -6349.174)"/></g><g transform="translate(2679.91 5657.875)"><rect class="d" width="33.962" height="32.045" transform="translate(0 0)"/></g><g transform="translate(2667.311 5689.92)"><path class="d" d="M3232.486,6665.174h-49.144a4.94,4.94,0,0,0-4.939,4.939v5.332h59.023v-5.332A4.94,4.94,0,0,0,3232.486,6665.174Z" transform="translate(-3178.403 -6665.174)"/></g><g transform="translate(2636.195 5535.174)"><g transform="translate(0 13.852)"><path class="e" d="M3005.069,5672.2h-16.083v-34.872a1.007,1.007,0,0,0-1.007-1.007h-18.693a1.006,1.006,0,0,0-1.007,1.007V5672.2H2952.2a1.007,1.007,0,0,0-.84,1.563l26.367,39.782a1.009,1.009,0,0,0,.838.451h0a1,1,0,0,0,.837-.45l26.5-39.781a1.007,1.007,0,0,0-.838-1.565Zm-26.5,38.97-24.494-36.956h15.214a1.006,1.006,0,0,0,1.006-1.007v-34.872h16.679v34.872a1.007,1.007,0,0,0,1.007,1.007h15.208Z" transform="translate(-2951.191 -5636.321)"/></g><g transform="translate(16.966 5.204)"><path class="e" d="M3095.008,5573.173h-18.9a1.027,1.027,0,0,0-1.027,1.027v4.107a1.027,1.027,0,0,0,1.027,1.027h18.9a1.027,1.027,0,0,0,1.027-1.027V5574.2A1.027,1.027,0,0,0,3095.008,5573.173Zm-1.027,4.108h-16.844v-2.055h16.844Z" transform="translate(-3075.083 -5573.173)"/></g><g transform="translate(17.01)"><path class="e" d="M3095.328,5535.174h-18.9a1.027,1.027,0,1,0,0,2.054h18.9a1.027,1.027,0,1,0,0-2.054Z" transform="translate(-3075.403 -5535.174)"/></g><g transform="translate(5.326 83.262)"><path class="e" d="M3033.289,6143.174a1.027,1.027,0,0,0-1.027,1.026v9.655h-40.125V6144.2a1.027,1.027,0,0,0-2.054,0v10.683a1.027,1.027,0,0,0,1.027,1.026h42.179a1.027,1.027,0,0,0,1.028-1.026V6144.2A1.028,1.028,0,0,0,3033.289,6143.174Z" transform="translate(-2990.083 -6143.174)"/></g></g><g transform="translate(2623.841 5559.55)"><g transform="translate(0)"><g transform="translate(0 0.002)"><path class="e" d="M2890.583,5713.188h-21.19a8.42,8.42,0,0,0-8.421,8.421v68.471a1.027,1.027,0,1,0,2.054,0v-68.471a6.374,6.374,0,0,1,6.367-6.367h21.19a1.027,1.027,0,1,0,0-2.054Z" transform="translate(-2860.971 -5713.188)"/></g><g transform="translate(22.213)"><path class="e" d="M3144.506,5715.64a8.368,8.368,0,0,0-5.954-2.467h-20.609a1.027,1.027,0,0,0,0,2.055h20.609a6.368,6.368,0,0,1,6.367,6.367v83.588a6.366,6.366,0,0,1-6.367,6.366l-114.352,0a1.027,1.027,0,1,0,0,2.054h114.352a8.423,8.423,0,0,0,8.421-8.422V5721.6A8.366,8.366,0,0,0,3144.506,5715.64Z" transform="translate(-3023.174 -5713.173)"/></g><g transform="translate(48.989 0.001)"><path class="e" d="M3250.814,5713.182h-31.086a1.027,1.027,0,1,0,0,2.054h31.086a1.027,1.027,0,1,0,0-2.054Z" transform="translate(-3218.7 -5713.182)"/></g><g transform="translate(15.26 86.079)"><path class="e" d="M3101.838,6341.746l-128.408,0a1.027,1.027,0,0,0,0,2.054l128.408,0a1.027,1.027,0,1,0,0-2.054Z" transform="translate(-2972.403 -6341.746)"/></g><g transform="translate(42.467 129.366)"><path class="e" d="M3225.633,6657.837h-48.042a6.526,6.526,0,0,0-6.519,6.518v4.346a1.028,1.028,0,0,0,1.027,1.028h59.026a1.028,1.028,0,0,0,1.027-1.028v-4.346A6.526,6.526,0,0,0,3225.633,6657.837Zm4.464,9.837h-56.971v-3.319a4.469,4.469,0,0,1,4.464-4.464h48.042a4.469,4.469,0,0,1,4.464,4.464Z" transform="translate(-3171.072 -6657.837)"/></g><g transform="translate(55.01 99.115)"><path class="e" d="M3263.691,6436.938a1.027,1.027,0,0,0-1.027,1.027v30.25a1.027,1.027,0,1,0,2.054,0v-30.25A1.027,1.027,0,0,0,3263.691,6436.938Z" transform="translate(-3262.664 -6436.938)"/></g><g transform="translate(88.949 99.115)"><path class="e" d="M3511.528,6436.938a1.027,1.027,0,0,0-1.027,1.027v30.25a1.027,1.027,0,1,0,2.054,0v-30.25A1.027,1.027,0,0,0,3511.528,6436.938Z" transform="translate(-3510.501 -6436.938)"/></g></g><g transform="translate(59.904 104.351)"><path class="e" d="M3299.43,6475.174a1.027,1.027,0,0,0-1.027,1.026v7.668a1.027,1.027,0,1,0,2.054,0V6476.2A1.026,1.026,0,0,0,3299.43,6475.174Z" transform="translate(-3298.403 -6475.174)"/></g><g transform="translate(59.904 118.594)"><path class="e" d="M3314.768,6584.926h-14.311V6580.2a1.027,1.027,0,1,0-2.054,0v5.751a1.028,1.028,0,0,0,1.027,1.028h15.338a1.027,1.027,0,0,0,0-2.055Z" transform="translate(-3298.403 -6579.174)"/></g></g><g transform="translate(2762.899 5698.685)"><path class="e" d="M3888.66,6729.174h-11.23a1.027,1.027,0,1,0,0,2.054h11.23a1.027,1.027,0,1,0,0-2.054Z" transform="translate(-3876.403 -6729.174)"/></g><g transform="translate(2719.624 5698.685)"><path class="e" d="M3595.392,6729.174h-33.962a1.027,1.027,0,0,0,0,2.054h33.962a1.027,1.027,0,1,0,0-2.054Z" transform="translate(-3560.403 -6729.174)"/></g><g transform="translate(2631.432 5698.685)"><path class="e" d="M2960.157,6729.174H2917.43a1.027,1.027,0,1,0,0,2.054h42.727a1.027,1.027,0,1,0,0-2.054Z" transform="translate(-2916.403 -6729.174)"/></g><g transform="translate(2699.107 5548.961)"><path class="e" d="M3517.33,5733.3a10.3,10.3,0,1,0,10.3,10.3A10.312,10.312,0,0,0,3517.33,5733.3Zm0,18.546a8.246,8.246,0,1,1,8.246-8.246A8.255,8.255,0,0,1,3517.33,5751.846Z" transform="translate(-3493.822 -5719.955)"/><path class="e" d="M3456.571,5654.651h-5.961a17.047,17.047,0,0,0-1.529-3.616l4.238-4.238a1.026,1.026,0,0,0,0-1.452l-5.21-5.21a1.026,1.026,0,0,0-1.452,0l-4.277,4.276a17.162,17.162,0,0,0-3.578-1.472v-6.058a1.027,1.027,0,0,0-1.026-1.028h-7.368a1.027,1.027,0,0,0-1.027,1.028v6.058a17.184,17.184,0,0,0-3.578,1.472l-4.276-4.276a1.027,1.027,0,0,0-1.453,0l-5.21,5.21a1.026,1.026,0,0,0,0,1.452l4.238,4.238a16.994,16.994,0,0,0-1.528,3.616h-5.962a1.028,1.028,0,0,0-1.028,1.026v7.368a1.028,1.028,0,0,0,1.028,1.027h5.884a17.061,17.061,0,0,0,1.509,3.714l-4.14,4.14a1.026,1.026,0,0,0,0,1.452l5.21,5.21a1.026,1.026,0,0,0,1.453,0l4.1-4.1a17.05,17.05,0,0,0,3.752,1.569v5.785a1.027,1.027,0,0,0,1.027,1.027h7.368a1.027,1.027,0,0,0,1.026-1.027v-5.785a17.03,17.03,0,0,0,3.752-1.569l4.1,4.1a1.024,1.024,0,0,0,1.452,0l5.21-5.21a1.026,1.026,0,0,0,0-1.452l-4.139-4.14a17.058,17.058,0,0,0,1.508-3.714h5.884a1.027,1.027,0,0,0,1.028-1.027v-7.368A1.027,1.027,0,0,0,3456.571,5654.651Zm-1.027,7.368h-5.659a1.028,1.028,0,0,0-1,.8,15.046,15.046,0,0,1-1.864,4.6,1.028,1.028,0,0,0,.149,1.264l3.972,3.972-3.757,3.759-3.941-3.941a1.028,1.028,0,0,0-1.274-.143,15.04,15.04,0,0,1-4.625,1.935,1.026,1.026,0,0,0-.794,1v5.554h-5.315v-5.554a1.026,1.026,0,0,0-.793-1,15.02,15.02,0,0,1-4.625-1.935,1.028,1.028,0,0,0-1.274.143l-3.941,3.94-3.758-3.758,3.973-3.972a1.027,1.027,0,0,0,.148-1.264,15.046,15.046,0,0,1-1.864-4.6,1.027,1.027,0,0,0-1-.8h-5.66v-5.314h5.724a1.027,1.027,0,0,0,1-.785,15.029,15.029,0,0,1,1.9-4.5,1.026,1.026,0,0,0-.142-1.274l-4.078-4.077,3.758-3.758,4.109,4.108a1.03,1.03,0,0,0,1.265.15,15.033,15.033,0,0,1,4.466-1.836,1.028,1.028,0,0,0,.793-1v-5.826h5.315v5.826a1.028,1.028,0,0,0,.794,1,15.044,15.044,0,0,1,4.466,1.836,1.028,1.028,0,0,0,1.264-.15l4.11-4.108,3.757,3.758-4.078,4.077a1.026,1.026,0,0,0-.142,1.274,15.029,15.029,0,0,1,1.9,4.5,1.028,1.028,0,0,0,1,.785h5.724Z" transform="translate(-3410.583 -5635.854)"/></g><g transform="translate(2723.962 5600.794)"><path class="e" d="M3672.1,6087.166a7.956,7.956,0,1,0,7.956,7.956A7.965,7.965,0,0,0,3672.1,6087.166Zm0,13.857a5.9,5.9,0,1,1,5.9-5.9A5.908,5.908,0,0,1,3672.1,6101.023Z" transform="translate(-3654.279 -6077.194)"/><path class="e" d="M3626.705,6028.4h-4.262a13.025,13.025,0,0,0-1.014-2.4l3.029-3.028a1.026,1.026,0,0,0,0-1.452l-3.893-3.893a1.027,1.027,0,0,0-1.453,0l-3.059,3.059a12.849,12.849,0,0,0-2.367-.973v-4.334a1.026,1.026,0,0,0-1.027-1.026h-5.505a1.027,1.027,0,0,0-1.027,1.026v4.334a12.873,12.873,0,0,0-2.366.973l-3.059-3.059a1.026,1.026,0,0,0-1.452,0l-3.893,3.893a1.026,1.026,0,0,0,0,1.452l3.028,3.028a13.018,13.018,0,0,0-1.013,2.4h-4.262a1.027,1.027,0,0,0-1.027,1.027v5.5a1.027,1.027,0,0,0,1.027,1.027h4.2a13.075,13.075,0,0,0,1,2.469l-2.957,2.956a1.026,1.026,0,0,0,0,1.452l3.893,3.893a1.024,1.024,0,0,0,1.452,0l2.926-2.926a12.959,12.959,0,0,0,2.5,1.046v4.128a1.027,1.027,0,0,0,1.027,1.027h5.505a1.027,1.027,0,0,0,1.027-1.027v-4.128a13.008,13.008,0,0,0,2.5-1.045l2.926,2.925a1.025,1.025,0,0,0,1.453,0l3.893-3.893a1.027,1.027,0,0,0,0-1.452l-2.957-2.956a13.073,13.073,0,0,0,1-2.469h4.2a1.027,1.027,0,0,0,1.027-1.027v-5.5A1.027,1.027,0,0,0,3626.705,6028.4Zm-1.027,5.5h-3.97a1.029,1.029,0,0,0-1,.8,11,11,0,0,1-1.361,3.354,1.026,1.026,0,0,0,.149,1.263l2.785,2.786-2.44,2.44-2.762-2.762a1.026,1.026,0,0,0-1.274-.142,11,11,0,0,1-3.376,1.412,1.025,1.025,0,0,0-.794,1v3.889h-3.451v-3.889a1.026,1.026,0,0,0-.794-1,11,11,0,0,1-3.376-1.412,1.027,1.027,0,0,0-1.274.142l-2.761,2.762-2.44-2.44,2.785-2.786a1.025,1.025,0,0,0,.149-1.263,10.965,10.965,0,0,1-1.361-3.354,1.029,1.029,0,0,0-1-.8h-3.969v-3.45h4.017a1.028,1.028,0,0,0,1-.785,11,11,0,0,1,1.389-3.283,1.024,1.024,0,0,0-.142-1.273l-2.863-2.864,2.44-2.44,2.887,2.887a1.024,1.024,0,0,0,1.264.149,10.958,10.958,0,0,1,3.261-1.339,1.029,1.029,0,0,0,.794-1v-4.095h3.451v4.095a1.029,1.029,0,0,0,.794,1,10.963,10.963,0,0,1,3.261,1.339,1.024,1.024,0,0,0,1.264-.149l2.887-2.887,2.44,2.44-2.863,2.864a1.027,1.027,0,0,0-.143,1.273,10.972,10.972,0,0,1,1.39,3.283,1.028,1.028,0,0,0,1,.785h4.017Z" transform="translate(-3592.083 -6014.354)"/></g><g transform="translate(2586.214 5635.392)"><g transform="translate(0 0)"><path class="e" d="M2617.191,6266.986a30.975,30.975,0,1,0,21.9,9.072A30.774,30.774,0,0,0,2617.191,6266.986Zm0,59.844a28.87,28.87,0,1,1,28.869-28.869A28.9,28.9,0,0,1,2617.191,6326.83Z" transform="translate(-2586.216 -6266.986)"/></g><g transform="translate(14.831 0.822)"><path class="e" d="M2696.618,6303.025c.082-9.4,5.028-18.9,14.7-28.229a1.053,1.053,0,0,0-1.461-1.516,57.89,57.89,0,0,0-11.423,14.732,33.129,33.129,0,0,0-3.921,14.993,33.666,33.666,0,0,0,3.82,15.447,60.459,60.459,0,0,0,11.512,15.3,1.052,1.052,0,1,0,1.487-1.489C2701.485,6322.434,2696.534,6312.6,2696.618,6303.025Z" transform="translate(-2694.511 -6272.985)"/></g><g transform="translate(29.854 0.822)"><path class="e" d="M2806.023,6273.3a1.053,1.053,0,1,0-1.509,1.469c9.941,10.219,14.727,20.421,14.222,30.323-.461,9.045-5.111,17.935-14.217,27.174a1.053,1.053,0,0,0,1.5,1.479,61.238,61.238,0,0,0,10.506-13.8,35,35,0,0,0,4.314-14.743,33.38,33.38,0,0,0-3.161-15.6A58.95,58.95,0,0,0,2806.023,6273.3Z" transform="translate(-2804.215 -6272.987)"/></g><g transform="translate(0 28.553)"><path class="e" d="M2646.614,6475.594c-19.582,9.66-39.392,9.661-58.879,0a1.053,1.053,0,0,0-.936,1.886,68.056,68.056,0,0,0,30.34,7.5h.017a68.527,68.527,0,0,0,30.39-7.5,1.053,1.053,0,0,0-.932-1.889Z" transform="translate(-2586.214 -6475.485)"/></g></g><g transform="translate(2591.033 5540.789)"><path class="e" d="M2642.552,5598.1a1.026,1.026,0,1,0-1.286-1.6,13.625,13.625,0,0,0-2.539,2.678,1.027,1.027,0,0,0,.235,1.434,1.025,1.025,0,0,0,1.433-.235A11.589,11.589,0,0,1,2642.552,5598.1Z" transform="translate(-2636.188 -5593.519)"/><path class="e" d="M2659.343,5997.388a11.472,11.472,0,0,1-2.671-1.636,1.027,1.027,0,1,0-1.3,1.59,13.509,13.509,0,0,0,3.148,1.928,1.027,1.027,0,1,0,.823-1.882Z" transform="translate(-2650.394 -5938.093)"/><path class="e" d="M2624.109,5936.607a1.027,1.027,0,1,0-2.04.245,13.5,13.5,0,0,0,.938,3.571,1.027,1.027,0,0,0,1.9-.788A11.407,11.407,0,0,1,2624.109,5936.607Z" transform="translate(-2621.971 -5886.466)"/><path class="e" d="M2622.43,5871.21a1.026,1.026,0,0,0,1.027-1.025v-3.425a1.027,1.027,0,0,0-2.054,0v3.425A1.026,1.026,0,0,0,2622.43,5871.21Z" transform="translate(-2621.403 -5826.08)"/><path class="e" d="M2700.594,5578.228a1.027,1.027,0,0,0,0-2.055h-1.117a13.666,13.666,0,0,0-2.48.228,1.027,1.027,0,0,0,.374,2.021,11.483,11.483,0,0,1,2.106-.193Z" transform="translate(-2685.919 -5576.173)"/><path class="e" d="M2622.43,5661.243a1.027,1.027,0,0,0,1.027-1.026v-1.788a11.692,11.692,0,0,1,.1-1.5,1.027,1.027,0,0,0-2.038-.265,13.8,13.8,0,0,0-.113,1.764v1.788A1.027,1.027,0,0,0,2622.43,5661.243Z" transform="translate(-2621.403 -5644.87)"/><path class="e" d="M2622.43,5731.212a1.027,1.027,0,0,0,1.027-1.027v-3.423a1.027,1.027,0,1,0-2.054,0v3.423A1.027,1.027,0,0,0,2622.43,5731.212Z" transform="translate(-2621.403 -5705.252)"/><path class="e" d="M2622.43,5801.211a1.027,1.027,0,0,0,1.027-1.026v-3.424a1.027,1.027,0,0,0-2.054,0v3.424A1.027,1.027,0,0,0,2622.43,5801.211Z" transform="translate(-2621.403 -5765.667)"/><path class="e" d="M2910.51,5576.173h-3.424a1.027,1.027,0,0,0,0,2.055h3.424a1.027,1.027,0,1,0,0-2.055Z" transform="translate(-2867.077 -5576.173)"/><path class="e" d="M2840.509,5576.173h-3.423a1.027,1.027,0,0,0,0,2.055h3.423a1.027,1.027,0,1,0,0-2.055Z" transform="translate(-2806.663 -5576.173)"/><path class="e" d="M2805.43,6111.173a1.027,1.027,0,0,0-1.027,1.027v3.424a1.027,1.027,0,1,0,2.054,0V6112.2A1.027,1.027,0,0,0,2805.43,6111.173Z" transform="translate(-2779.342 -6037.908)"/><path class="e" d="M2724.884,6017.249a13.5,13.5,0,0,0-3.606-.789,1.028,1.028,0,0,0-.162,2.049,11.441,11.441,0,0,1,3.059.669,1.027,1.027,0,0,0,.709-1.929Z" transform="translate(-2706.644 -5956.163)"/><path class="e" d="M2980.51,5576.173h-3.423a1.027,1.027,0,1,0,0,2.055h3.423a1.027,1.027,0,0,0,0-2.055Z" transform="translate(-2927.491 -5576.173)"/><path class="e" d="M2771.537,5577.2a1.028,1.028,0,0,0-1.027-1.028h-3.423a1.027,1.027,0,1,0,0,2.055h3.423A1.027,1.027,0,0,0,2771.537,5577.2Z" transform="translate(-2746.25 -5576.173)"/><path class="e" d="M2785.148,6050.3a13.591,13.591,0,0,0-2.056-3.065,1.027,1.027,0,0,0-1.535,1.364,11.537,11.537,0,0,1,1.746,2.6,1.027,1.027,0,0,0,.923.576,1.047,1.047,0,0,0,.45-.1A1.028,1.028,0,0,0,2785.148,6050.3Z" transform="translate(-2759.401 -5982.429)"/><path class="e" d="M2805.43,6181.173a1.027,1.027,0,0,0-1.027,1.027v3.423a1.027,1.027,0,0,0,2.054,0V6182.2A1.027,1.027,0,0,0,2805.43,6181.173Z" transform="translate(-2779.342 -6098.322)"/></g></g></svg>